<mxfile host="app.diagrams.net" modified="2024-01-15T10:52:47.616Z" agent="Mozilla/5.0 (Windows NT 10.0; Win64; x64) AppleWebKit/537.36 (KHTML, like Gecko) Chrome/120.0.0.0 Safari/537.36 Edg/120.0.0.0" etag="fREMVnk7PIlJKsTsP0Pk" version="22.1.18" type="github">
  <diagram name="Page-1" id="8Bfsro7ig4Ft_5F9yVai">
    <mxGraphModel dx="1682" dy="473" grid="1" gridSize="10" guides="1" tooltips="1" connect="1" arrows="1" fold="1" page="1" pageScale="1" pageWidth="850" pageHeight="1100" math="0" shadow="0">
      <root>
        <mxCell id="0" />
        <mxCell id="1" parent="0" />
        <mxCell id="ZKNnla8mWsDUbSr4f9X8-1" value="s4" style="html=1;fontSize=12;strokeWidth=2;" vertex="1" parent="1">
          <mxGeometry x="-682" y="992.5" width="60" height="32" as="geometry" />
        </mxCell>
        <mxCell id="ZKNnla8mWsDUbSr4f9X8-4" value="Health" style="swimlane;fontStyle=0;align=center;verticalAlign=top;childLayout=stackLayout;horizontal=1;startSize=26;horizontalStack=0;resizeParent=1;resizeParentMax=0;resizeLast=0;collapsible=1;marginBottom=0;fillColor=#fa6800;strokeColor=#000000;strokeWidth=2;fontColor=#000000;fontSize=12;" vertex="1" parent="1">
          <mxGeometry x="-454" y="783" width="100" height="52" as="geometry" />
        </mxCell>
        <mxCell id="ZKNnla8mWsDUbSr4f9X8-5" value="+ Name: Stress" style="text;strokeColor=#000000;fillColor=#fa6800;align=left;verticalAlign=top;spacingLeft=4;spacingRight=4;overflow=hidden;rotatable=0;points=[[0,0.5],[1,0.5]];portConstraint=eastwest;strokeWidth=2;fontColor=#000000;fontSize=12;" vertex="1" parent="ZKNnla8mWsDUbSr4f9X8-4">
          <mxGeometry y="26" width="100" height="26" as="geometry" />
        </mxCell>
        <mxCell id="ZKNnla8mWsDUbSr4f9X8-6" value="Emotion" style="swimlane;fontStyle=0;align=center;verticalAlign=top;childLayout=stackLayout;horizontal=1;startSize=26;horizontalStack=0;resizeParent=1;resizeParentMax=0;resizeLast=0;collapsible=1;marginBottom=0;fillColor=#FA6800;strokeColor=#000000;strokeWidth=2;fontColor=#000000;fontSize=12;" vertex="1" parent="1">
          <mxGeometry x="-394" y="853" width="102" height="52" as="geometry" />
        </mxCell>
        <mxCell id="ZKNnla8mWsDUbSr4f9X8-7" value="+ Name: Anger" style="text;strokeColor=#000000;fillColor=#fa6800;align=left;verticalAlign=top;spacingLeft=4;spacingRight=4;overflow=hidden;rotatable=0;points=[[0,0.5],[1,0.5]];portConstraint=eastwest;strokeWidth=2;fontColor=#000000;fontSize=12;" vertex="1" parent="ZKNnla8mWsDUbSr4f9X8-6">
          <mxGeometry y="26" width="102" height="26" as="geometry" />
        </mxCell>
        <mxCell id="ZKNnla8mWsDUbSr4f9X8-8" value="" style="endArrow=none;html=1;rounded=0;fontSize=12;strokeWidth=2;entryX=0;entryY=0.5;entryDx=0;entryDy=0;" edge="1" parent="1" target="ZKNnla8mWsDUbSr4f9X8-4">
          <mxGeometry width="50" height="50" relative="1" as="geometry">
            <mxPoint x="-500" y="982" as="sourcePoint" />
            <mxPoint x="-489" y="812" as="targetPoint" />
          </mxGeometry>
        </mxCell>
        <mxCell id="ZKNnla8mWsDUbSr4f9X8-9" value="" style="endArrow=none;html=1;rounded=0;entryX=0;entryY=0.5;entryDx=0;entryDy=0;fontSize=12;strokeWidth=2;" edge="1" parent="1" target="ZKNnla8mWsDUbSr4f9X8-6">
          <mxGeometry width="50" height="50" relative="1" as="geometry">
            <mxPoint x="-479" y="984" as="sourcePoint" />
            <mxPoint x="-350" y="932" as="targetPoint" />
          </mxGeometry>
        </mxCell>
        <mxCell id="ZKNnla8mWsDUbSr4f9X8-10" value="" style="endArrow=none;html=1;rounded=0;exitX=1;exitY=0.962;exitDx=0;exitDy=0;entryX=0;entryY=-0.038;entryDx=0;entryDy=0;entryPerimeter=0;exitPerimeter=0;fontSize=12;strokeWidth=2;" edge="1" parent="1">
          <mxGeometry width="50" height="50" relative="1" as="geometry">
            <mxPoint x="-450" y="1013.0120000000002" as="sourcePoint" />
            <mxPoint x="-365" y="950.0120000000002" as="targetPoint" />
          </mxGeometry>
        </mxCell>
        <mxCell id="ZKNnla8mWsDUbSr4f9X8-11" value="" style="endArrow=none;html=1;rounded=0;exitX=1;exitY=0.5;exitDx=0;exitDy=0;entryX=0;entryY=0.5;entryDx=0;entryDy=0;fontSize=12;strokeWidth=2;" edge="1" parent="1" source="ZKNnla8mWsDUbSr4f9X8-1" target="ZKNnla8mWsDUbSr4f9X8-20">
          <mxGeometry width="50" height="50" relative="1" as="geometry">
            <mxPoint x="-660" y="1032" as="sourcePoint" />
            <mxPoint x="-590" y="1007.9939999999999" as="targetPoint" />
          </mxGeometry>
        </mxCell>
        <mxCell id="ZKNnla8mWsDUbSr4f9X8-12" value="has" style="text;html=1;strokeColor=none;fillColor=none;align=center;verticalAlign=middle;whiteSpace=wrap;rounded=0;fontSize=12;strokeWidth=2;" vertex="1" parent="1">
          <mxGeometry x="-620" y="985.5" width="60" height="30" as="geometry" />
        </mxCell>
        <mxCell id="ZKNnla8mWsDUbSr4f9X8-13" value="has" style="text;html=1;strokeColor=none;fillColor=none;align=center;verticalAlign=middle;whiteSpace=wrap;rounded=0;rotation=-75;fontSize=12;strokeWidth=2;" vertex="1" parent="1">
          <mxGeometry x="-524" y="914" width="60" height="30" as="geometry" />
        </mxCell>
        <mxCell id="ZKNnla8mWsDUbSr4f9X8-14" value="has" style="text;html=1;strokeColor=none;fillColor=none;align=center;verticalAlign=middle;whiteSpace=wrap;rounded=0;rotation=-50;fontSize=12;strokeWidth=2;" vertex="1" parent="1">
          <mxGeometry x="-460.73" y="925" width="60" height="30" as="geometry" />
        </mxCell>
        <mxCell id="ZKNnla8mWsDUbSr4f9X8-15" value="has" style="text;html=1;strokeColor=none;fillColor=none;align=center;verticalAlign=middle;whiteSpace=wrap;rounded=0;rotation=-30;fontSize=12;strokeWidth=2;" vertex="1" parent="1">
          <mxGeometry x="-429.56" y="970" width="60" height="30" as="geometry" />
        </mxCell>
        <mxCell id="ZKNnla8mWsDUbSr4f9X8-18" value="" style="endArrow=none;html=1;rounded=0;startArrow=none;exitX=1;exitY=0.75;exitDx=0;exitDy=0;fontSize=12;strokeWidth=2;" edge="1" parent="1" source="ZKNnla8mWsDUbSr4f9X8-20">
          <mxGeometry width="50" height="50" relative="1" as="geometry">
            <mxPoint x="-510" y="1042" as="sourcePoint" />
            <mxPoint x="-368" y="1052" as="targetPoint" />
          </mxGeometry>
        </mxCell>
        <mxCell id="ZKNnla8mWsDUbSr4f9X8-19" value="has" style="text;html=1;strokeColor=none;fillColor=none;align=center;verticalAlign=middle;whiteSpace=wrap;rounded=0;rotation=15;fontSize=12;strokeWidth=2;" vertex="1" parent="1">
          <mxGeometry x="-443" y="1027" width="60" height="30" as="geometry" />
        </mxCell>
        <mxCell id="ZKNnla8mWsDUbSr4f9X8-20" value="&lt;b style=&quot;font-size: 12px;&quot;&gt;Internal context&amp;nbsp;&lt;/b&gt;" style="rounded=0;whiteSpace=wrap;html=1;strokeColor=#000000;strokeWidth=2;fillColor=#FA6800;fontSize=12;" vertex="1" parent="1">
          <mxGeometry x="-545" y="985.5" width="95.29" height="49" as="geometry" />
        </mxCell>
        <mxCell id="ZKNnla8mWsDUbSr4f9X8-21" value="Personality" style="swimlane;fontStyle=0;align=center;verticalAlign=top;childLayout=stackLayout;horizontal=1;startSize=26;horizontalStack=0;resizeParent=1;resizeParentMax=0;resizeLast=0;collapsible=1;marginBottom=0;fillColor=#FA6800;strokeColor=#000000;strokeWidth=2;fontColor=#000000;fontSize=12;" vertex="1" parent="1">
          <mxGeometry x="-545.73" y="1120" width="139" height="52" as="geometry" />
        </mxCell>
        <mxCell id="ZKNnla8mWsDUbSr4f9X8-22" value="+ Name: Conscientious" style="text;strokeColor=#000000;fillColor=#fa6800;align=left;verticalAlign=top;spacingLeft=4;spacingRight=4;overflow=hidden;rotatable=0;points=[[0,0.5],[1,0.5]];portConstraint=eastwest;strokeWidth=2;fontColor=#000000;fontSize=12;" vertex="1" parent="ZKNnla8mWsDUbSr4f9X8-21">
          <mxGeometry y="26" width="139" height="26" as="geometry" />
        </mxCell>
        <mxCell id="ZKNnla8mWsDUbSr4f9X8-24" value="" style="endArrow=none;html=1;rounded=0;exitX=0.612;exitY=-0.015;exitDx=0;exitDy=0;entryX=0.5;entryY=1;entryDx=0;entryDy=0;strokeWidth=2;fontSize=12;exitPerimeter=0;" edge="1" parent="1" source="ZKNnla8mWsDUbSr4f9X8-21" target="ZKNnla8mWsDUbSr4f9X8-20">
          <mxGeometry width="50" height="50" relative="1" as="geometry">
            <mxPoint x="-680" y="1080" as="sourcePoint" />
            <mxPoint x="-630" y="1030" as="targetPoint" />
          </mxGeometry>
        </mxCell>
        <mxCell id="ZKNnla8mWsDUbSr4f9X8-25" value="has" style="text;html=1;strokeColor=none;fillColor=none;align=center;verticalAlign=middle;whiteSpace=wrap;rounded=0;rotation=60;fontSize=12;strokeWidth=2;" vertex="1" parent="1">
          <mxGeometry x="-516.76" y="1063.5" width="60" height="30" as="geometry" />
        </mxCell>
        <mxCell id="ZKNnla8mWsDUbSr4f9X8-33" value="" style="endArrow=none;html=1;rounded=0;entryX=0;entryY=0.5;entryDx=0;entryDy=0;strokeWidth=2;" edge="1" parent="1" target="ZKNnla8mWsDUbSr4f9X8-26">
          <mxGeometry width="50" height="50" relative="1" as="geometry">
            <mxPoint x="-472" y="1035" as="sourcePoint" />
            <mxPoint x="-376.9549999999999" y="1127" as="targetPoint" />
          </mxGeometry>
        </mxCell>
        <mxCell id="ZKNnla8mWsDUbSr4f9X8-34" value="has" style="text;html=1;strokeColor=none;fillColor=none;align=center;verticalAlign=middle;whiteSpace=wrap;rounded=0;rotation=40;fontSize=12;strokeWidth=2;" vertex="1" parent="1">
          <mxGeometry x="-473" y="1058.5" width="60" height="30" as="geometry" />
        </mxCell>
        <mxCell id="ZKNnla8mWsDUbSr4f9X8-35" value="Physiology" style="swimlane;fontStyle=0;align=center;verticalAlign=top;childLayout=stackLayout;horizontal=1;startSize=26;horizontalStack=0;resizeParent=1;resizeParentMax=0;resizeLast=0;collapsible=1;marginBottom=0;fillColor=#fa6800;strokeColor=#000000;strokeWidth=2;fontColor=#000000;fontSize=12;" vertex="1" parent="1">
          <mxGeometry x="-364" y="958" width="145" height="52" as="geometry" />
        </mxCell>
        <mxCell id="ZKNnla8mWsDUbSr4f9X8-36" value="+ Name: Heart rate" style="text;strokeColor=#000000;fillColor=#fa6800;align=left;verticalAlign=top;spacingLeft=4;spacingRight=4;overflow=hidden;rotatable=0;points=[[0,0.5],[1,0.5]];portConstraint=eastwest;strokeWidth=2;fontColor=#000000;fontSize=12;" vertex="1" parent="ZKNnla8mWsDUbSr4f9X8-35">
          <mxGeometry y="26" width="145" height="26" as="geometry" />
        </mxCell>
        <mxCell id="ZKNnla8mWsDUbSr4f9X8-37" value="+ Mean_Value: 67.17" style="text;strokeColor=#000000;fillColor=#fa6800;align=left;verticalAlign=top;spacingLeft=4;spacingRight=4;overflow=hidden;rotatable=0;points=[[0,0.5],[1,0.5]];portConstraint=eastwest;strokeWidth=2;fontColor=#000000;fontSize=12;" vertex="1" parent="1">
          <mxGeometry x="-364" y="1010" width="145" height="26" as="geometry" />
        </mxCell>
        <mxCell id="ZKNnla8mWsDUbSr4f9X8-38" value="+ Std_Value: 8.88" style="text;strokeColor=#000000;fillColor=#fa6800;align=left;verticalAlign=top;spacingLeft=4;spacingRight=4;overflow=hidden;rotatable=0;points=[[0,0.5],[1,0.5]];portConstraint=eastwest;strokeWidth=2;fontColor=#000000;fontSize=12;" vertex="1" parent="1">
          <mxGeometry x="-364" y="1035" width="145" height="26" as="geometry" />
        </mxCell>
        <mxCell id="ZKNnla8mWsDUbSr4f9X8-39" value="+ Median_Value: 65.85" style="text;strokeColor=#000000;fillColor=#fa6800;align=left;verticalAlign=top;spacingLeft=4;spacingRight=4;overflow=hidden;rotatable=0;points=[[0,0.5],[1,0.5]];portConstraint=eastwest;strokeWidth=2;fontColor=#000000;fontSize=12;" vertex="1" parent="1">
          <mxGeometry x="-364" y="1059" width="145" height="26" as="geometry" />
        </mxCell>
        <mxCell id="ZKNnla8mWsDUbSr4f9X8-43" value="" style="shape=image;verticalLabelPosition=bottom;labelBackgroundColor=default;verticalAlign=top;aspect=fixed;imageAspect=0;image=data:image/png,iVBORw0KGgoAAAANSUhEUgAAAYgAAADFCAYAAABO8mUgAAAAAXNSR0IArs4c6QAAAARnQU1BAACxjwv8YQUAAAAJcEhZcwAADsMAAA7DAcdvqGQAAABhaVRYdFNuaXBNZXRhZGF0YQAAAAAAeyJjbGlwUG9pbnRzIjpbeyJ4IjowLCJ5IjowfSx7IngiOjM5MiwieSI6MH0seyJ4IjozOTIsInkiOjE5N30seyJ4IjowLCJ5IjoxOTd9XX0Fbw7oAABsCElEQVR4Xu2dB4BcVdWAz/beN7vpvXeS0Eso0jvSf6QoKAIiigqiqIAIKk2RKgqigNKlg/TQSYX03rO72d77/Oe7814ymczOziYzs7vJ/XDN7ps3M+/dd+9p99xzYzyKWCwWi8XiR6zzr8VisVgsO2AVhMVisVgCYhWExWKxWAISM336dE97e7usXLlSRo8e7Ry2WCwWy94A8r+yslJWr17tHNmOmaSura2Vk046Sd5//33nsMVisVj2BoLJfxtislgsFktArIKwWCwWS0CsgrBYLBZLQILOQTQ1NcnmzZulsbHROWKJNKmpqdK/f39JSEhwjli6g5aWFmltbXX+slh6HsnJyRITE+P8tesEm4PoUEEws71+/XrJyMiQ3NzcsFyIJTi0eVlZmdTX18uQIUOco5ZooUNBNmzYIM8//7wZNFZJW3oqyIrY2FjZf//9ZebMmbsln3dZQaxYscKkvlrlED3a2tpMyvGYMWOcI5ZogHLYuHGjPPvss3L88ceb9rf93tJTob+Smkp/HTlypBxxxBHOK10nmILodA7CDpLoYtu7eyCctGDBAjnwwANl7Nix9jlYejT0z+zsbDnrrLNk9uzZEQuH2klqi8WhpqZG+vTp4/xlsfRsUBIpKSmSlpZm+m4k6JUKorq62kzkApqTmPE+++xj4scWy66C205ctydAiHfRokVywAEHOEfEJIvcdNNNcu+99zpHdh8Ey8SJE83cly8cHzZsmEyaNEmmTJkixx13XI8YX3V1dSbmjpc3depUOfjgg2Xr1q3mNRILHn/8cRk/frxMnjxZLr30UnM8EMzzEVZx29cNMR511FEmvHjqqaeaEE6o8LyWLVsmhx9+uJFF++23n7z11lvb5rUOO+wwM5f705/+1HnHjvBsb7jhBhk4cKC5L66L9wPJQjx3Qkm89s4775jjgJKgz/I9kaBXexAohzfeeMM0Hkpi0KBBzisWi2V3wTIlLv3555/LvvvuK3/84x+dV7oXrOannnpK5s+fLx9//LHx+hDQixcvlocfflg++eQTEy687bbbnHfsCIrk5ZdfNvfnghBG8aI0vvrqKyOg7777bufVzuH999xzj3zrW9+SOXPmyH333SfXXnuteS0rK0tuueUW8xOMpKQkue6668x9ffbZZ3LMMceY+/r666+NsuDff/3rX+ZzmauMBr1WQdBAaNKf//zn8swzzxhrhwf/97//3Wjv6dOnyzXXXCMNDQ3y17/+Va6//nrzvubmZnnooYfM+yyW3gr9+I477jDWMlblt7/97Z08DCYfyXIhGxGL+ZRTTjHjYtq0afLYY4+Zc0IhPj7eKIgtW7ZsE8SHHHKI+RwseBSIa6wxWXr66afLhAkT5LLLLjOWrevljxs3zozNq666Ss455xzzWmlpqVx00UXmOEL5tddec761a9AeKI3vfve7JjaPZR0oXMh3lpeXyyOPPLKDNY/s+N///ifnnXeeJCYmmtj+q6++6rwaOnhefAdt369fP3MdmZmZZm6LtNSu4l7XN7/5TaMYkXODBw82Siga9EoFwQOoqKgwLuS///1vk2lFx124cKG8+eabxqr46KOPjBJ58cUX5eSTTzadl8amIz399NNG01ssvRUsVgyfefPmmZ/OrF2Eyz/+8Q8zockYeeCBB4ygDAUEPJ7EiSeeaATe0KFD5e233zafdf/99xurFxiDy5cvN9bzp59+arLxsIQZq4RPGIN8DkoBXKv7hBNOMEqGjJxf/vKXRriuWrXKCOlAYPRdeOGFRmn94Q9/MPLA/W48B5QWYSiu0R++E8X6gx/8wLSJi6us+vbtu025lJSUOK92DsIfyx7FgwBHvnBtXYFru+uuu0yI6oorrjAhLu6rqKhIBgwYYM4hnITiQVlHg16pIHiAPBAakpgj0InfffddoxjoOFgj7733nqxdu9a4eGhwrBM6EY2O5WWx9GTo54HgOIJi+PDhcvHFFxuDBys/GK5gxNs48sgjTVwcIRwMN95P7PuDDz6QM8880xxnDhCPhbkJBOHSpUvN8bi4ODP23IWeeBGMP76Ha2VtD8fdz3G9DkIvjGUUEMJ/06ZNMmLECBMZ8AehjlFIGOiVV14x1/Wf//zHCHiMP4QpcgAlhRKoqqpy3umNOhC+4d4JJQWDNu6o/QPBd7/00kty+eWXG48NuYQ3g6wJBcJLRDxQqhi4eEG/+MUvnFe7j14bYkpPT5e//e1vxlK58847zTEGCQ+FToAlgUdBKAmXEdcRt5pO93//93/mfIulp4JwysnJ2WGiFCHI33l5eSZ+jnd8ySWXGIHC5CgCECHtCiXOJ+zkegBY/Fj0/DD5jNIIBt+BACakhJf+u9/9zrwH7wOBzxjDCMMzd0HQuXAtfHcwEPgvvPDCtjG7ZMmSoGuAXAvabZ8zzjjDhFs4jgLCG+EaCMVwjb5KkPbh3j/88EPzGjF+vtP1jPLz842Cod3wHvxDVK7nQmjN37uhDVBchNdcRUnb+0/+dwTfX1BQYN6L8YuMcu8LrwalCTxbvAfaIBr06klqHugTTzxhfp588knjWjJoyGrgIfNwsBZodB4q1gyvuxaMxdJTQWBQxYA+jkCjP9OvEfR4xwje4uJiI+R+85vfGKseAUYWDEIPYUjoad26dea9xMaxShGeCGGURahwHTfffLOJ8RMuIgSE0OIasN75ro5wPR32GsCyRpAyHwEYdMxlMLHMNfI5eAbB4P2u0OV+ic8zt4FnQqbVrFmztrUV30k4zAVDESud8kG8xsQvXhBzDbz/G9/4hrlHvAEMSZSNLygzPIO5c+fu5N3wvGgTFCpCnIwmlCnPLxS4ZpQTcI+vv/66iXLQRlzXc889Z+53zZo15pkylxQNerWC4KEQm0M5/P73vzda9kc/+pEcffTR5sGTquY2uuvaEmpioFgsPR3qcv3pT3+SX/3qVyYEg9WKR4x1jJDGK8YTIDWT0AaeBfNtCGLOx8MmPOQKGbwPziekM2PGDOdbOodxhuLhs5nHwIpGqDOWqLbAdXYE78XS5zuPPfZY4+mgcJi4RVn97Gc/M0qHtFTCX7feeqsRsIHmIBCinItS5HxSR/EamOR27xElQGiLsf7b3/7WpJbSViiiYHAthKQIE/HZRCaQJaGC8vj1r38tf/nLX0zbMxGPp8X9o5xHjRplJsUffPBB4yERlkPgM9eAIuf3H//4x+b5kFjw5ZdfGo8N45br4d5IR8azIFTI8aigje7RG/DMnDmTX7eh2tyjN+H81fvRTuJRd9SjFphzpGeyp7V7b0GtRo96oh61LJ0jlnChAt+MP6irq/NceeWVnvvuu8/8bdk91EvxqCLyqFflHOk6geS/S6/2IEJB79EsgMFiYt6CSTeLxRI9CNlgWeMhYB0Tm2fuxNLz2eMVhOseE3fFPbZYLNGF8I27AIzFXqSC+qaYWnoue7yCsFgsFsuuYRWExRIAJkqjUQupqwS6LuA41jmpqYRymOz83ve+t0MKam+AydoLLrjAZD5xH0yEc1/grpvgOBO2/llGvvA5TNy7NduASXomr5kwZsU3k/nhggwsJrZ5LlzfoYceatJUeS5MQrNSnPVYHfWdYPfNKngms7luQnRkqUULqyAslj0EUkpRDIRyWBtBOiRrDHoizA2yEI/5CX9YB8DKcO4Docs9cT4ZiTfeeKNZIIfw7ChkjLAmFdV3DQnf889//tPUa2NdBwv9yDoKBt/p+xnBwHgg64hsLVKIyUgi+4wQN2sWWDFOllQwAt03SpF0XNZlECYnW/PHfM6//y3ywQfOOyOHVRAWyy6AcCO9lPIKLIoirZpBjSAivdSt88N51NFhhT/plqw8xvolj50yFbxO/j5WJgKJtToIBizPQDWPQoV0T9ItWVSFF0EZC6xPPouaTAgchBpCjNXYpIyynoA0TCCHn9eomsprWLdYv1wXC1BJWSXxg5RTqhOECsKbtqBMDtcTqgDmHljDROo6c4oI3o5Ks9OmCGvWbrjwfrfWEinvLI5jzQJt3hE8Lyx/JtTdtSidQUor5/Gvu6CP9RG0O9/bVdzrPvfcc00qL/2morxciqhgG+IivN0hrAqiqbVd3lpUJPe9t1I+WFYibe27XoI2kCsdCRefBxmo3LHFEgpYfSgGFqvdfvvtztGdQTASGqC/IWCxMoOt6EewdFTzKBQQklii5M+7awTcVdSUmWB9BTDOWD+ElUopGixUxhnKiJIVfAaL4VBgQCiEwpdcD+dQDgIliSDDW0Ew+4PAZFEf+fsoU74DAU0IhtXD/qCcWB+BUGXdB39znZShICORTMSDDjrIrFz2h3MfffRR8/kIZhf3GlAugLBmPUawelS8jqfC+g9qJGEEcA/u2ipf3HUQLMQjTMR6js48FH86um++z71us5K8sFC2+JQQiSRhUxA1ja1y4d8+lx/+Z77c+eYyueqpefK9f87eLSVhsXQnCOlAuMcRMggPdzFTsJg2A5siboQJWIBFJWIEUDA6qnnUEQgTBBrXQmkMFpGyaIzjLGjD2scCJYzhfhbKA28ARceqXxbb4XUgvBGyHGehG9uwImSpbUR5DbwiPuuHP/yhEby0BWUmKMrnC9+Nh0FtJcI+L7/8svmhRAbZTf7wfZQV5/pQUAhHwjN8NwKT+2DlM4tjUcgoDRe+i8oJKDpK7oQDrpFrRfnxvaz0xquifXzh2rgm0nlZpU0ojMVyodLRfQdE28IQhcVyISmIppY2+fV/F8o5D30a8OfsBz+V0+//SL5cWy4NzW1CJRgUxvvLtsoJf/4w4HvO++tncvsbwTt8MHDl0ebRKHds2ftACQSrheTiCjmUBPFi3ofQRVi50C85jhWI1U2fdIvJgXu+KwSBf4PVPAqEOwfB+QgwVuNSsoHvp0oqcXE8ARQEx4Drcu+B39376AiukfvAs3B/vvjiC+fVneGaWO1MaiuroBG2CFF3kx9/uAYsf/5l3RKhFRSLq2DxhDheqFY07Yg35kIbcj3cPyvIiQwQSiPUxufxHjwQoC3x5lhpHQzulyqvXPPZZ59tlCfPBcXrC59H+Q0MBtdw8FciwQh23xx3r5t73KL31I80YaevRJKweBAe/a++SRWDn7PA3w1NoVUz7CoMoGiVO7bsfTBQsfA7qoXUEbwPyx1LE0GLcYKg4P2EMRHAbskMBBkCgPMRbAgZ4uwuGDgIBz6ns5pHvrjXwHcQGuG73Zg430G9oWC4sW5XuaAUyR7ic8nEITPIvU6uzVdIBwLrGIGHBU5YiHYkTMR8AF6SL1yrG8LhWrkGt9YSng7hPL6T+2Hc+xb247rJUuL9zOVwXYSwOI/3o1y4dz6Xa2Fuhe/DC8F49Aej8vzzzzfzQFwzm/W48xjcky+0DXMiJAdwfcyz4DWFSrD75rppNz4X+ZWthktfakwFKXESLkJSEEkJcXLTqRPlP987MODPU989UG44cZykJG53eXDCc1IT5JbTJgR+z2UHyPXHjfWe3AE0eiA4zsDCuopkuWPL3k2wWkgdQT8kRREvg1AP5xMiwvJDECEYEb5XX321iVFjvZOOyvcgiFyjhUnmrtQ88gfBQogIQYolSiiIsBC1kHw9oECgxJicJVWTa8dyxmKmfhLXgPeDgcVr3AvCFqHW0RyEC2OWtsPLRzmShuoPQtmtMYUiZi6FCX/eyzXgNdCuTOxfcsklRoi6iQCugA0E7clEO5ldRB1IJGDeyBXMgeQHbUhoD0XDhHcwgY8Byv4PtDNtQriIZ+oqIN5L1Wn6EtfMc/G97o7um+tCMfLMCG1d97OfyZ2E8fT92qmcb48gegNhqcVU3dDiOfvBTzxjb3zdM+y6VzwTf/2G5zuPfeFpbWt3zugaOqA8mzdv9qiF4BzxeLQRPddcc43nySefNH+rdeNRb8CjrrpnxowZpt7LLbfc4rnnnnvM62qdeLQzeVQReFQje4455hjzGZzH77NmzTLnaMfzqBtp3tPddLXdLeGh2dZi2gHGH+OEf0tKSjyqvDzq5Tiv7jmo4WjqQr322mvOkV5AS4vH8/LLHs+LL5rrv//++3t+LaaM5Hh5/Dv7y5/PmSrXHjtG/nLePvLQt2ZIXGzom274gpcQzMXH3YpWuWPL3gFWJn3I4s1W+s53vmM8J9J5mYDGY9jT4JmzCI1J+F6ByjKpqGDVH+6WkW2EAd15pHATNgUBSfGxcvSEvnLlESNl5piCXVYOLj2l3LFlz4cQBjF6JnYJR+7tMPaIezM3wnwKE9yWHoL2VWirq5N5c+aY8FZXwo9dIQY3AmFLbjTWuQsxU+KewXZ3soQf2+7dB3F0JmPZUAbDIlJWmcWyW2g/bfv4YyldtEiK9t9f/u/ii3drj5tA8t/FKogehm337oXQJLnopDaiMCyWHgWZbOo1xD7xhGRlZMjoF1+UDJ8FgbuCVRC9CNvuFoslKKQG//a3IupByL/+JZKT47ywawRTEGGdg7BYLBZLBFEDUkjP37DB+3eE58usgrBYLJbeAllMVMBFMeBJhLh4clexCsJisVh6C9RfGjdOZJ99iA15lUQEsQrCYrFYegskTrz8ssjTT3uVQ4TX7cSyHoDl/2Rt7Da4Pf/9rwjL7d94Y7fcHyZre9OOXhaLxRJxKAnCor4LLkAgeuckIkgsK4rZOIMVy7sF2uy440SocX/jjSLnnityxhkRj5FZLBbLXgMKgeKIS5Z4Q009Yg4CTUVp4sMPD/yjHogceKDIhx+yU4n3JtjQ4rXXvLGyQO856iiR6693vqDrUMyqJ+/oZbFYLGHHnaSmWF9hoUh6uvNCZAjPHAQXzYSJv7vD3yiMCELZ3Z64o5fFYrGEHSapJ08WOfZYEdYthGNqIAihKQhqnxP354IC/bz7rsgf/yiSlua8QaFUN2Gr++4L/J533hGV6M7JgQlW7hsox9uTdvSyWCyWiMIkNft5qEEs3/mOSJDS8+EgPB4EEyfMP+y7r1dJUEwqM1OEidyjj3ZO6hoogd62o5fFYrFEFDWK5aKLRNiOFEURYaM1PAoCUAhkLj3xhHcZOBuKP/+81yXaBRDovXVHL4vFYokIKotMmuvDD4ucf77IkCHOC5EhfAoCsOZPPVVU+no9il1UDi7Byn13BN5AT9jRy2KxWMIO0ZlBg0QmTfIuKVCZFklssb4ehm13i8XSIUQxKNL32WcibLF62mneSevdwBbrs1gslj0BQkyvvuqdg/jb30S+/tp5ITJYBWGxWCy9hcREkcsvF/nHP0Suvlpk4kTnhchgFYTFYrH0Flgkd9ddIpdcInLnnSKffOK8EBmsgrBYLJbeAksKzjrLW87ol78UOegg54XIYBWExWKx9BaYpJ41S+TNN0VuuUXk9dedFyKDVRAWi8XSW4iJEWGhMPtQ33GHt7JrBAmrgmD18X//+1/53e9+J2+88YZdWGaxWCzhBAWRleVdC0GY6YUXnBciQ9gUBHWLqIpKAbwb9cLPPfdcOeOMM3ZLSVRVVZkFa9/97nedI2IWsrG6+Zxzztm28vnuu+92Xg0N1hqsWrVKnnnmGfO3fwXYcOFbKdZisVh2G9JcWa9AlQqymCK8L01ICoJaRtQtOvzwwwP+sDqZ1caUxEAoIoAR7q+99ppZAR3oPZTqvr6Tct+UzaBaK2W3uQZKXrB3Rf/+/c3rFOs77bTTTPG9ruCuqn722WedI6FjvSKLxdJtUIvpW98SueEGkccfF3nvPeeFyBAWD4I6R6zGQ/D6wt8ojN2B0hlHHHGEvPnmm8ZjeOmll8z+DuBr+Tc0NMgll1wiV155pVFW48ePN+GuQKBs8HLeeust2W+//Uwpb1dpHHPMMea9lPcAPKPc3Fz54Q9/aGpAffzxx/L3v//dvI+SHddcc41RGoH2mgCu+V//+tcOe1ZYLBbLLkGa6x/+4K13R9G+/fd3XogQlNqoqanxqBfAr9tQoedZunSp81dwVAh6/vOf/3jS0tI8fCQ/av17CgoKPK+//rpzVtdRL8RTWFjo+eKLLzwqfD1bt2717L///p433njDc/bZZ3uampo8jzzyiOcnP/mJp76+3nPhhReaH67nyy+/9EydOtX5pB3hdfczgM958MEHPZMmTfJUVlZ6SkpKPOPGjfNs3LjR/J2amup5/vnnTZvMnTvXvE+Vk/nOq666yqMKwPPRRx95Tj31VPN5qmzM+1RpeI488kjPDTfcYL6TzzjllFPMOR3RlXa3WCx7GSpHPC+95PE8/rjHc/75Hs+vfuW8sOsEkv8uYfEgsPKJtWMlq5IwFVIzMzONxX30Lpb7duGzVFgb6x6PAAu/Iwg5nXjiieZ6Ro8eLSronVc6h/cQ+srKyjJF+Xj/hg0bzGuEuVSwmxDXu+++a3an4165P8qAr1u3rsO9JrqyZ4XFYrEEBQ+CitlUy2YrBOoxRZCwTVKjEMhcekIv/rfq/vxbb0AtZiMYdxeELGGmm266Sc4880znaGDc/SFAFaDzW2j4vtd3fwmOu/eBImHSnPLglAtndzr1EDrcawL896ywWCyWXQI5NH26d5tnivSpYRpJwqYgAEF46qmnmhLbeBThUA6Agrj00kuNIGZ+YHdB6Kenp5vtR7sCyoG9qcmcYm8KFBB7TOAVBNprwmKxWMIKRu+WLaICx/t3hJNmwqogIgVhJvaAuJwiVWEAQT5hwgQzsU2oyJ1Q7gyug4lmwkiEzvgdhbhFH1igvSYsFoslrKAQvvpKZONGkeLiiO8oZ/eD6GHYdrdYLB3ClsgPPiiSm8uiMFIyRa67znlx17D7QVgsFsueAHOYbO08d67IqlVebyKC7NEKgvUJTBxPnTp1hx8W6VksFkuvIz5e5PDDt69/INQUQfZoBcFcA1lFZBz5/pCGarFYLL0O5iBUhsnmzSKjRnkzmiKIDTFZLBZLb4Esppwckfx8kfp6kU2bmLh0Xgw/VkFYLBZLbwIlQVVX0vS/+MI7cR0hrIKwWCyW3gCKgdp2H3/sXUU9erQI86lhWm8WiLAqiHDvB9FZue9wwMpm0ruYzAbWRrAor6NCf7sKRf/cKrQWi8XSZfAa0tNFTjtNZOxYb0YTXkRLi3NC+AmbgojEfhCdlfsOB+5nfoGr1gVsyQyLxRJV8CBYHPfnP4tQqQFvgurQu1kxOxghKYju2g8CKG/RUblvlA/fyXdPmzbNfCaLzPBk7rjjDlP62011pbAe3oEvbonvBx54QH7/+9+bz/nkk0/MeygF7ls2HIWAV3TYYYeZRSVkR3GvrKpmNfaMGTPk0Ucf1WfoMZsRHXrooSalltfcEt9c13XXXWeOH3nkkV0qJmixWPZy8CD69BH54Q9FDj7Ym+5KxQYWzUWIsHgQCMVI7QdBiIlKqs8995z5LCqmIoyB0hcooFmzZhkP4Nprr5Wbb77Z1IT63ve+J8uXLze7xnH8nnvukZSUFPM+F94/cuRI+f73v28EN4L8oIMOMtfN/fC5jz/+uPzmN78x56M4li1bZorxcS77PODNfPnll0aBoSBQUNRqogQHKbWcN2nSJNNGKFqU3WeffWYUxz/+8Q/zuRaLxdIpyFeyligN9PXX3kVy7EsdQUMzJAVBmOfee+81sfpAP5TA/uMf/2hKfbsQHsrPzzfCNNB7WItw++23O2d3TLBy3whd6iDhUWCVI+SXOrVJuJY777xTrrjiCuPh4EGESkdlw/kbwT5kyJBtHsUjjzyyzSMoLS2VtWvXmk2D2Mjo1ltvNQqNwoDANR177LFmfYYt/W2xWLoEHoQazMIWCkOHeuch2F0uO9s5IfyExYNAcEZqPwjoqNw3IRtCQ8cff7wq069MiXGsdMALWL16tdnboWgXaqb7lv5GEbn4KkEUJ4X+8BSo3spcCQqMe8ajyNYHx4Q314XCpJ34F1ASdh7DYrF0CZUhwrwumUtUdX31VVHL1Hkx/IRtkjrS+0EEKveN4KZkN2Eeth/lu93jxcXFRqG8qg3I7x1lJSGwEfqElLoCwp55BjwF5kbc+Qw+Z5O6gQMGDJDLLrvMTNqjQCwWi2W3IMRE1OGVV7zlvvv2FbXCvZlNESJsCgIitR8EHkmgct98H8fYkxph7WZM4UUwb8A8BPF/Jqwpv80eDv6gfL7xjW/IU089tW2SOhSYG7n44ouNImCCnNLf7FvNd7/++uvmbzyoV/RhMsdhsVgsuwXRh8JCkQsvFLWURZiLvfPOiE5S23LfPQzb7haLJSB4EAsXilx7rchtt3kVRBgIJP9dwupBWCwWiyVCoCDIYorw2gdfYkkZJcuHDJw9GeYoHnzwQZNx5P6w+9tPfvIT5wyLxWLpwRBiokjf6ad75x+iQOzs2bPNSmJSUvdkmDNgvsIt+c3PnDlzzPyExWKx9HjIpqQGExsF4U1EgU5DTL4pnpbIY9vbYrEEBNlAauuSJd6tRqNAUAVBlhDF8azQig5MUNPerK+wWCyWHYhVcT1kiMjZZ4sMHOgcjCwdZjEBC9E2b968bfGZJfKwsI91HaTfWiwWyzao2vrccyIPPijCmq8BA5wXdo9gWUxBFUTI4GEwyX311SIXXCBy4onOCxaLxWIJC83N3jpM1IajmiveRBiITpor7o9av2YpuMVisVjCDyWApk0TychwDkSW8CgI0q/y8kT+9jeRY491DlosFoslbGCEM/cwdWpEy2v4Ej4PwmKxWCyRg1JCs2eLPPlkz8hislgsFksPgUgNu2mefLKI3942kcIqCIvFYukNoCCY52XLAcJNUcAqCIvFYukNEGKaM0fkvfesgrBYLBaLD2yfsM8+Iuee6/UmokD4FERtrQiF7956yzlgsVgslrCBB8E+1B9+6ByIPOFTECziWLnSu9ORxWKxWMIP2xT36+f8EXnCpyDY1ejFF0XOO885YLFYLJawQViJ8hojRjgHIo+dg7BY9gSo0/PssyJz5zoHLHsclPj++muRpUudA5EnfAqChRu//a3I//7nHLBYLFGBWmjst46CeOAB56Blj4PnjJKIUpkNCJ+CaGoSmTXLu5mFxWKJHow9iriR+mirAO+5kMXEXvVR3K8+fAoCrXbvvSLf/KZzwGKxRI2GBu+/FRUin33m/d2yZ+GugyAZKEqET0GwifZpp4nYLTwtluhC6AEvgvILjMOPP3ZesOxR8Jxrapw/okP4FASu7TnniEya5BywWCxRAwVBhU8mqzdudA5a9jjwIqK442T4FIQ7w24nqS2W6IJliedAGiSKor7eecGyR4HyR0EkJjoHIk/4FASdlDgom2rzu8ViiR4IDxaroiT4tzeDkvvd70TOOss5YNlmBPDjzjdFgfApCDIo8vO9oaaqKuegxWKJOAiP6mpvFQMyXXq7gUY0YvlyrzDEYrZ4nylylWqu2dnOwcgTPgUBbIfHhhbUZbJYuguEChO11M2/5Rbn4B4OHoSrGKK0mUxE4RmiKLgvi/fZunIVJRElwqcg2Iv6kENERo2KaozMYtkJBMuaNV4LNIopgd0G9Xkwzkg1z8nx/h4KCN9//1vkhRecAz0EhCFhJn72BGUXDmiTykqvpxil7UYhvB4E4aU+faxbaOleiMMjLMn2iFLd/LBAbPkHPxB58EHnQAggOMrLveElxl1mZuj3zFzFQw+JPPKIc6AHQaiMjXEQiJbtCgJDvFeupGZQMiDp5Fg0Fkt3gQdRUtL7Jmy5XgQA9ZRuvtk52AncK8oBqxLvgbUQCJNQ4X1RTJsMGdqC8iF4gZbthgAGOIozSoRPQeAKfvCBN9WV1ZwWS3fBYKIPImS6Iiy7GwwrhDzX/sUXIgsWOC8Ewb1XLO2sLO89hzIHyPtc4YuC6YmpsYSYrAfhhedK6B7Dh32po0R4FARWDOmtn34qUlhoPQhL98JgIkSBgMHq6i3gPbjzCQiDdeucFzoB4U5oibFHmDcULx4FQciCeQgURU9LLHHnHuwchBf68/77i5x9dlQXI4dHQRDzHDrUGz8lPmY9CEt3gvCjJAGuOMK2NxgsXDOW/H33ea+bopdFRc6LncDcA+91N5JBYXTmEfB9hHBQKPzeE1LTUVb//Ke3ppt7XdaD8MIzJkP0nnu8xniUCO8cBB0bq2TzZuegxdINIFiwopl/wIPoLVYoApLwAXFmfkJRbNwrHgDjj/RH9ycUBYFSwGtBsfSEuRp37ggBiKHJPdk5CC8Y4RMnivzsZ70wxOTCQyUOGuWCUhbLDiD8CJnww+YqUVx5ulsgIAsKvGOIe9i0yXkhCJznhtGYoGbCmfHXmWDlfXgoCOHi4tC+K9Jw/2vXeq+d3/PyeubcSHdAezC/+/DDXiM8SoTXg6CDkhWxYYNz0GLpJrDGEbTEa3tDqisCG2HIvxhaWPahzJ9wPmEYFAPjjx8UYmdKkffhWfE9vIdwkwvhjM8/F7ngApEbbnAORgGuCUXF/bjRCOtBeKEPT50qct11Xu8ySoRXQbAvNZMpxEMtlu4EAUkcG2HbG1JdEY5uNhIT1IwjlFxnuO/DMHPnXDDQOpt05n2Ec7BMURSugiCs9cYbIu+95y3pwGu33y5y1VUi3/te5NdMcF1Mtp95pvfaelOSQSRBafNMqAwQzTlej1JZWalPRQL+pKSkeB599FFO8zQ1NXnuueeegOfxk56U5Jnzo197vrjpbk9NTY1nypQpAc9LTEz0XH311eYzW1tbPe+//37A8/hJT0/3zJs3z5xbX1/vueiiiwKeFxcX5znssMPMeRCue8rKyjLngb2nXnJPVVWeKdnZAc/bI59TTIznB4MHezxFRZ7Wl17yvN+3b8Dz+Nl2Tw0Nnvof/9hz0dChAc+Li431HKqvec4/3+O55hpPxS9+EfA8fiJ1T1frfXh++lM7niJ8T3zGzJkzzXF/wup7N8cmyEOTjpOnxx3uHLFYuod2uv5egke995rcPtKmHvzy/qPkj6f90HmlY2ifjfVt0hzfQVkcteQbm9vkDweeI389/HxpwRuLIm2xcTJnxFR5aexhzhFLdxCDlqhVd/Skk04S1WjO4V2jQTvUD56cIy3auR66YLokJ8Q7r1gs0aOpqUX+cO8rkpCZKjGDBstlhw2X3LQQ6xN1E02t7XLH60tkaVGtnDmjn7z6FSmuMfLwRft6T+gAxtzVT82VpIRY+dO502TOunK5992VcsXhw+XAER3HqhH+v3jqcylob5Z1CSmSogogKzFONlc3ybCGctmvbpNkelrkif4zJD89SVaXN0h6UpwUVTfLt/YfJCdOHeh8UsdwbVc+MVvflyB/Pn+ac7Rjqmvq5bFfPiCDpk+QY889Wi77xxcyNC9Nbj1jsnPG3gvP6/p/fioFTbVy/eXHSmxsjPPK7hNM/ofVgzDTEKmJUtDWKCXVdoGLpXtoj4mVVdl9ZW1Srvzj03WyQYVbT0ftNKlpblFvwCOFmSnGuGohBh8Cre1tEquDj/GXEIdgbpXmluAuFK9WeuJlXXy6TOqfLc2qoMoammWQ1MmGzAJ5e9i+MvGHlxnFWtbQIq1tHklNjJcq/T0mhEn/dr2fjWV10tDSLvUq3DqDqYcapj+G7yurCoeqahSJ1+8J5b17OjyrWu0b8Rlp0q4GTziVQ2fEzpgxQ2bOnCmlpaXOoV0nsa1VLln0lpw4721J+sJunG7pHmK0Hw6p2CzTGovk2wcPlUE5Kc4rPZumuiZJjIuVIVmJctbG2XLNh/8SD5OTHYBSqS4plaT4OEmJ8wqN2Ng4qW1qU2XT+RqKeBU0MapVyovK5PQVn0iKWpKFAwqlqaVN6vT9CKLhfdIkNyVe+mYmyVn57fKbdx6WYeWhpN/q/VRWywlrv5Szln/oHAyGR9rq6iRe76l/mze1NTE+VlqNeNzL0TaprayTivoWSWhrcg5Gh9jZs2fLBx98IPls9rObtMXFycJRU+SJGSfJO62ZzlFLbwdrcHlRtWys6B2WeIsKph+9/TfJqCyXv3+8VpaX9LAyEgGIUy9g+pqvZP+y1dInM1XK+/SXl2Z+Uz5Y7pN+6oen3SONW7bKYesXyEnFC82xRFUUDSrg65s6zoBqaWuXFz9bLf1qy2VodZFMXrdIZo+bIacvfEfaVqyUaX2T5ci8dvVGYuWs/YfK2AHZcuXhwyVXPZsnjzhP6kIx6j3tElNeKstHTZN39znKPJeg6Ou59dXyl08ekaMbvQqI9zSpstvr0XZIrK6QCz76jxxdvcY5GB3CG2JSlzBx/HhJTU6QNTFpzlFLb4f4+J3/Wy73vr3MOdJzaVM59Glpq1x8yg3y5dBJcsSYPpKbGt0J1l2hNSZOZg2bIqsGjjQTtCv7j5S6tGx5YcEW+WBJ4JIbTE5vyimU17NHyZYDDhP1ByRZvYn6plZpDSJXUfirqhqlKTtHPEMGy6HfP0/S++TJkweeLlv6DpXS+jY56tAp5lyUxDenD5YB+RlSkV8g6xKzZGlq53n4bXoti+JzZVNsomypaZR564Knq3Ivq1Lz5Nx9LpYvRs4w4bL0pHgTOtvbUVUrS2My5I7Jp8mCEVOdo9EhrAoCl3R8brJ855Nn5OjZbzpHLb2d+LY2OXrZJ3L63DecIz2X9vZ2Wbu5zEys5qqhQoSitZdEKdpUEWM1IxKzU+JlQE2pXPPCPVI/62PvCf7oubF1tVLaEiN9YhHJHhkgjfLqwn/K0RvnOyftjL5NKirrybuUM/cdKllZ6UYJFGQkyWnTBsiNp0+VNNrOj/T4WBlevFpiakKrj+RpaZRhzdVy5OdvSnxz8NAI19Tc2CxxqhBSjEgUKYhvlZzyYuPx7NVo42TWV0ms/jsyKbptEV4FoQ93REG6JGwtlpQtG52jlt6OR/8rT8uR18cfKm09PH80TgfRmMpNMrq2SKantsi6igapaQhhwVk3QWtW1jfLCx+tkCs/+Y9cuvAtYz0XxHtkWvlquf7Ai6QsPvAcSqynXYavWyYPv3Sb7FPrrX/GxG7ZwKGSEGRXuThV+Ieu+lIKtqyTYflp5vsKs1LkFydNlKlD8pyzdgRBMaS1Vi796Bk5YvEs78Eg8B1Tl3wpo4vXyJwDjpam4hLnlcAQYpu6ar489ervZObmhZLQ3ipnLPpATvnsZYlXJdjd0O/nrtkq1z49T2YtC7GIYpiI0edcULRBHnvrLhlTv/tzxV0hrAoCyKt+8NhL5dHDz3eOWHozWHY1Kl+3TpwiWzyJ8vvXljiv9EzaYmJlccFw+TomWzKGDpKZo/MlP63nboHbol7D4x+vlqVba2VxTLrMzR1mrGdPUoLMSSmU2JQUWd9niPdkP1r1Xj/qP0F+f9bPZMWQcSZMU5aYKv+XdYg8kT7COWtn2lSJzO47WrVJXEgZScBnV+f0kWtP+Yk8N7rztQmtsXHy4bB9ZMnQCVLriZNZ9cE3JeL89/uOlfsPPEfmDp+if8fLm1OPktsOuUBKY7r/+bWqZ/r6omJZXVovz8+Lbt0q+vSsvBFy2Yk/lXWD9blFkbArCI/27rakRLVK4pwjlt4M3kO1uv6ZyUlS39QmRTU9O30ZL3ZQbqrk5KSZ+Pk/P1snS4t77iQ1HkSbCp/U9BR5bb8TZP7gCWYeZXFxvXyV3k8aVYE0duC1oby31jXJutYESYxTYa/HSEXdd2iupOm/vhB6c0HYl2fkSXGfQc6RzuGzyZbKSk00Ia3O4IpLm/Xf9HQTei7R6wwGobUq/dz5A8ZKXLIqBNyatDRzvK6xeyequYatVfUmxKPGvLZDdOe0eM4Vdc3S2NIuyfFhF9lBici3NbV6ZHV5nRRV2kqMewLVDS3yv6XFanDGipNN2WNBoZXVNktNY6v0z0qWK44YIeP7RW+T967S3t6m46VN6lT55qQkSH4Gwj5Gztt3kBRmJElWSnyHMXiEcE1Tq36GRzISvQZZnArjbBXiyFfgs2999Wv51Ytfyx1veL0/XspIipe89K4tHuSz05NipTnYDLgDQrVWn0FpTZMxLLi/zqjTe+HaUljMwb96T6lJcVLTzbW0WlRjv7pwi1HW3L+f7o04POe6pnY1frzPLZqEXUEwyTSub6bRtAiUaEDe9oZSW/UxEmC91Da3Gcs0KT5GEmJ7vmeYlhxvrrtcra4/vb1SPl/TMzewQogWVzXK6tJGIxyTVTCePrWfCvcYGdInw8wJEPtm4VsgeH95TYup65fiCA6cjS0VDbJZPxfIbMpPS5LimmZZ76Qpc86a0nqp1e/sEiqgEtWLYNFcKJD9trmqSa8vplPDgufV0KLXo+eRiYWCS9F/MxIT9B67V0EYD6K6WRrU8OXO65ujO1GsV6Df3WoMiBRVmNEk/BJcH2xmcoK6yeoaRiGHuVGVw29fWSgPz1olj85a6Ry1hBMUMFY5q1pL63r+Cnmuk6E8vCBdfnbMaJk+JMd5pWeBnF29ldXGbVKo3s5+w3JkZN/t14pMTWKxWJAQU1F1g1EA6clewcF7YlQauxPzpLSu2dpg/iWO7sWj392uSr+Lw1+/r0W9ByzpthAyi1pUoGanqlAzHgFX1jHcYY3KC6xkPAfujZBKTWOLLC7q5v1l9Jq4vs2VjUaJExKMJrQFISZkaq/3IGjJerUEKLlRvBvlNtDanUF5gCc+WSkFGYlm5ee6KJVU4Hv/+uFyeWtRD9hkJcLwHGhbki+JazeHaD12F1jMeWmJMlKVw9aaJrnjreXy8aqeWX6etl1XXm9i9IkJsXL2fkOdV7aDR94h+hL1kXJ0rGUQt3dAHDepcHWJVYURqyejaPBI8ABYRZ2pnlaX0O9LUKt+U1WDbK0NPrYZvvWUDvGo96BShhTc4Hg9JcJrrKAmnDWiIFVlSdu2cFm3oZeOPkTJosC6YwQwt5auzys1KbrzH2FXEDzMHPUgSmubVLB0Pb0Qj+C6Z+bJjS8uNBNDweBBYXVU1TWZbBA6ky91an384fVF8t6S8O3hSjz45bkbZemmWvls1d6x97bx/PW5UhAOwUPhsJ4KVtbc9ZXyzuIS6atW+XXHj5UD1DLviTB3sL6s1gz+gIv5jECOMdYj5/rDsVbtj1i1Ljwn5i0Qsi68NUb/bFaLvkw9QITvsD7ppuZTV+ATWSuRpt9XoR4lhlIwSFhJSoiRFL0WwkaNQUJaKJSGZmL86nE4IaaCrFQpqW4yyq07oeUJx1U3qgLTa0PR+k76RxrahhBkdywaDL+C0B8W2WBoVtV3TZC4ucat2iKV6iI/N79jC51Gq6hplFpVAmP6ZZv5jiG5KVLd4I1XIsifV0HO3ws3hm9DdqyIxcVV0qA3uEU774J1e/bmSAyOlnYWYYlkquBJ0MHeFcWPwv9oxVZ9XnxS5MHCo37QcRP7msJyf3p7hXy4Irq54yGjAz6FuR1VvNMChMFo85y0JDNJ2uwX0qE9y1XYVxHG9ZEbNDMhtjKfrCEEGp4IE8bE85kbWLSp2pzXJfQzEOB0is9XlsrPnp0vv3h+gfOiH3pN1JVKV1mAh8R4ZqK3I+gdKEJ+Yz4FTzA3LUHS9PfsHpCmjHLNSPV6XBV1LbK+NLoJOK0eJql9HnSUiIAHEWOsDONWxnRNKKAgFmyqkQLtEFSo3FLZsRtrygWo9VXV0C5fbapSryVeSlVg//3DVeZ1PmtpUZUKtHgp1uN3ORkcnYH7TWmDjmKsDMAyHWgpibGmpMHKrbs3OY4i+/fna+XSx76Q+Z2UI+guYtQURIgR/2TCsbGTSqEuCKK731omj+gzuf/9Fc7RyMKVUWa6Sg0HVlP/5NgxcuDw3a8zFhG0M1FYD+uwIGNnax55gLWPd9yEG+cD/RCBj0eX5mQwGfQ9GEu0AegwMJWV+RxeRNHUNbXI5sp6ozi6Ap+QQVhKf2nztJnvrqxvkWY/zx24PorLMe/BHAnzHVR37Qg+mwnYvDRnvYQeSFJPZaQq+/YOxmK04F6YQE/Rdi3MTFLDt0UaVT5FE0J1zEdFmwgoCDGxslwV8nQgtyN/snKrsSZvfPEr+dNbS+Xl+eudd3ihqzIhVVHfZOKjzfpe0uQ6AgWxvKhGyvRhpalVM6pvppSoZseqp1N+tGyLWkjt0jcjUSp1AJYY6yQ4uMx/eWeZ/Hv2RvnFi1+bY0zQ3vzyQvmlXvd/566XWcvZ6D1WMhPiZWheiiqx3bMkUGSz11fIhopGeWmBdzVsT4NUSSMYtJOWqQVa5XhpocA6rHZ9HyGJaEB/21LVKOXaL+g/97+/Uj70KXhHv9lYXmeKD3Y3ps9r38Qooe7QzniFAjNA1Q3bx4Lpp+8ul/eX4m17y1K48LtreTPevAe9cw45agEzcYyymDE01xhyXcGMbRX0GAlLS+pZZ2dCeqtKdm5LlBqlvpNVqI7vl6VeZ7vZa6IjeG4oSrxV4D6wmFmzURdAAUUL2vrB95ebcF6iGpuELZn3iXYZckJayb6GQJSIiEqK1w5UrQO0VN1cOun1zy6QW19bKos2Vsqg7BSpVkXw+sISeeLT1c47vIKYbCS8huVb6XyxptNg5by9qEjufHOpibe6IFiXbKk2GRXUrTl9+iBhiJkSwXre7A2Vkpkcq254i/EGGBgIh2VFFfLH15eYf/0h86W9vdVYWdsHl0iyDiiuj3jxV+srjTU0JD9Vv1uVVEmd/PMTr9eyKzAQUvWa89ITZGBOqvdgD4KBgZeENZih7QydxZ5duLdMVd6JCd6MlGiAoTy6IF32HZJt0l0vO2S4TNffXbj2h1RpvDB3o9SoMdLdkBGTmRwXsPYR7ZeTmmA8ahIFgD68oaxGZq+tVIHb6G1fH8uS98SpAVOmBhFWr0kyaGwz1jjzdZWq3DkH4ZusXmFX4D2D8tPVYPCY58ncR5KO03kbdgzhMm5r1Uth7iEjJUEOGpWnY8q73iMYDG8W/LnwfYSQWUfRXdDeJVXMpyIXvIZSi44JlFm0wBPnZwdPMUqE34PQH7JdiK2Sh761psF0xPx0wkbtsq60Vjt0jLGaFm7ZMX2NzmYaX7UzD4a5CEIwL8zbJHPVyiZk5Audf1BuiswcW2D+jonTjqudcNayEimqapGS2la18tPNeaT11Ta0yGsLiqS0tlGe/nLnWlH61bKmvFFyVBDiASFM/vnJGnO9bcSBtU9UaccYlpcmx0wolDS9ryq1UpcX71qYCeX3vl4r/+JCFvXATZawcumcZJdg5dKWxPZDgffWNjWrxarPVQdXNMBw+HhlmXy+ptz0nedUEXyxtlwNjwb58b/nyEtz1pkJWzJx/qRWeLfDrr8qCAOih7H2WYdSUe/1wEwf3dpg+nNjS4sqwzQ5Y5rv7m7kC8UYoYq357XKseTJQouVDerxVqk38unqMjMp3BVQvkPzUo3QwKLNUAXBta0q2XEcY2gxn1Cpwp1J3fTkRLN+JpaGDwLywVfZsRKe3SmRB90FMqBvdpJRhqTrxsfEGQOyNAprM5CB9Sp0UPQmBZgHEGWCP7FdQTt7ploNdGAymf63cIuxXthw5MMVxbK1vlUtC6+CaPLpoLik/dS7YBK0MDPZCCTOaVHLnXZhYJC26KJtZ7IKiAeOyM8wxygHUc2cxIYKs7J0uFo7p88YpK5ZgvmuL1YXGw+hUq+huLpZGh2rbBv6mRgGJbUtJhNmg3oMxRX1JlwxNDdZNqoAZxvvQ0bmS2F2mpw4uZ+5boTSroB1vkKVHlkauP9dXrgUJRA2ualJkpeWZBQnefuhYJRJvT4/bZ6uxrt3FQTqoWqxHj2+rwqlWDl9nwEyujBD5quBgeBcX9HoDROoAcPr3Ym3RbyZOx0Ro0KVdQHryryhTNp0Y3W92SK0vtljFr/1y9o+f4EMHpyX7F1LoP+xExkhWObMsNArVXAj9AozEs2xrsD8Yn56srHsG/Qz4hJizEI/wry+MDaZlCYzK8uZ2OW6mfsIlI0FHMXLd1dRuyToMwvVYw03GEYPqrdZXtss6K2CjATJ1vtJ1bb132+Da2Sup0SfTTggYnHTS4vksse/lE0VdSojPNpn9xAPIlUtTYQ8g3W1CtkhOQmSYZaoxxvh/MX6aqMIXI2IplxfXqcCWy0O7Xys2I1TTU0oavXWGonXvxN1MBMu2oa+NVaPZep3JWqn4rvGFKapphfJU2+FTlvhZHJkET/XO523vkpqVIHEq+WPu7jSz/Kh82LpZqmCYx5law1ZIu16LlaMR/po5+ibmSDjBuaYax9WkG5cTjV05NZXF5lB0BU4v0bbg7IQGJFdfX804JJqdDCQcECbcK1dsTyr9b3NahkSg47G/aGsv1hbIXPXVZh+tba0Wj5UL+3rTRVGSZWp91ihxgELyVD83Yo2B5O8TUjuADA6slO8i8aYVwF+Z34uMyXWbC+arR3eNzZtxl9CvBpoIrWNbcaLx5rHksejwqNgMnh030yzfqKroCQIIbNuo6Gx3WQYZQRQcGZxpY5Xtiylb1NDiLBUSQfrJ7xjr90oNl8Y+9vCvd1AXEy7el2NkquK8RcnTjSyBA+6QsetC9f3s2fnyf3vLpO73lwhd76x2HkldBgZeAvuvdIjSmsbVBG1q4KoN+2Mco42YVcQQCdV48LkcNc2efTfJMnPSJY1ZXUyoX+6HDO+0HgFnEeHL1PN+/6SYlm4pU7yVbH8+uSJ2hgJxlKp1E5GXjRhqs3aUEBnWrap3HQ8FgEBCuKA4flSwAbrZd6Vowl6jM+gps2MgRnGMyjRB4v1qB8hizZXqmXpTVPlOojPluk5fCLueVFlg3l/lg7CLB2Q1fqwxvf37pTHOanqmWCF4Qp7Wtvk588tMCG1UOEa1ul3IEBzVNEx+cWajp4G7YgiRPETrqhpCs29ptM3qaQiJu7NeIn8vSHA+mcnyyhV3jy7flmpxror0udJvB+dsFUNjzgVWFzX0i3hS4HuKvRR5tA6Cr+5fZfOWabeuAseXL5a50z++6sW0kMpi8J7sIAxyDKS4xxDJsaERMm+W11SZ/p8V+EtJg29rlU2VXq3SPWfW+AcwjCMEcpDAN+P8N/seEL+oByQFxghLsiI/uodBZ7AjzxcP4YsP+3ajzEKM1MSzepw/3vGgB2Ym2Y2R1qzCwt2UQw/eXq+Wf8FfHe8Pn/mHerMM9tZeUaDiCgI00FU+m2tajYPfllxjSTFxUuSNiKWzNn7DtF/vRkam8pq5LGPV2tnU2GsD6AgE4sjRjV2kpkYXa9KgU7DoNjihJiYp3h7yVb1OLaHdxhMg/LSjcVCOYAh+Sly3r4DTCcjTlukn5WkHgwTzAOyEmW/gVny/vJSefLzDeb9WLdbVVEl6+vEagdkp+iDrpf1lfVmsvOKo8bJ7WdOlSPG9Tfnu2SpGWdWcqt7jIX66EfbJ95DgYGk49zEWpcU1cqDH3bt/RFHrw2LMUWVIWG/bB0gIa+Q10eDEMQKrGtpNaUKIo0Z1Cq0iGV7PYgaKSTMoc8GRcccVQsTrNoPy1UZv784+D4FkYL+VqHWNKuZc7RNA0GfHlmQxaVvC8easJEKjBT1ErxzfX5CQxuAEAj9nvo9pLOSIcvY4jhyjbIpzMGEUnTPH+yx4TkpJhSUoFagXuJOwpLnzkQ2mVMoBsYzaxtI1V3u57UDI5iQNLIBheML99ddkUD6z8aKZtPnf3DUSG1aVRBphPZ2XJTLcxqck6wGZ435nZ+uQmINbYZ3Qt9o1LZi1TpUqieIBx/tOkwQMQ8Cqzs/XQem/oE7esmhw+W3Z0yRnx471pxDZ6hWS+aNxcXaCdRdpYG00d1VlP1VQOckx+oD0g6urhfx44YmdZl1UP35rSWmAanWeeSo7RucMAhGFaTqa/oA9dyxA/PUaoqVKUPy9DPaZB/1Im7/5hQZnq/ehLrdWFQN2rm3VNaZzrCuvM50aix5UlgJMWm/7VBz0xH6acdYrJ7PILVaWWGa2MVidgwOFjGNLcw0MWI3f72noM1iQjFMIFLqmbAfk5yhwvwDhajJpNH+H3FIu1y0udoUq+PaWSeTqhZfigozb6kQNSr0+Ig+Kdo3Y2RDda3c9toi+dULXxkDIVog9DGKSJdE2AeCcUBogfHUzM0o/EO4bq0KflYpHzV2x+0/OZf+ipVbp8Jmi44fhHSyfodZcKdjjHFz0uR+Mjiv69sCI+wJTdEfULgoYsaYLygxlC/3mKJGGddEyLlNLaGAxoWeh46J0Zsz3o8PeEGhJkWEG1qc7CXqXQ3JTzfPIyMpUcc4WY3bfTcEepl6VChcBD0eWlfgmSLbaCfeT0o4i/FadcAwj0taOeck+2R4RYuIKAgjOFVg9svQTqE3SUcCLDvSV+lkg7KTZEJ+ksxZVyGLttSqC6cNoJ1jeF6qeRBZSaqV1SNgqX2RM0nEvMFTn6+VWP2McnWdE9ScOX7q9pr2CPdvTBwgd583XW45bbI5xmfhjZy172A5eExf8/1Hji80WSGJ+lqMPuc5ayuNYPl6U5Xp1H0zvVZyrQ5EJmWH5gceSFjWB43uo4JTvQhVhuRw43U88G7nezfTqYqr6oyHhSd10Mh80tXN8Z4E18NEPHFtykhjeeP6hgoWO4qYLoABEGlQtlMHZcvYvt7EBbzNheqZHT2+n4zvjzVORVrWAeSZSb+W1lip0sEYK23qya7pcBI13PAtRtFquzBh3Bmutc/7Kht0TFQ1yc2nTpLDx/Y1x114HQMJRU4KdrGOHcKw/dUzp6AfsvxLHXPvLd0qa3ahAjKPPkfHBJ44/aGx2SMlZsHe9mdLSI+sQ6IEqeY7Y2SEjiHSzQMX8FSLWQUx4S//rkVZF5RNd0G2FmElF2RMlnoRvhDFWF1WZ9aeUAcsHmHVJQg1qhGs31WqhitZW8gnttShjRtaSNFnHif0cRcuIqMgtBEn9M+Uar3peqdj+0IjHzyqQBr1602Wg953QUa8fPfgIXKAHseVw+IpzEgwnZsQ01C1+LCEENw0Ih2pT3rH2R++IKAmDMgx2SuA63boGBXsKcmSrZ+xZEuV0dBYKqTj5mekmJXDpLZijbEBSyBQhJPVS7nltCly8vRhkp+WLPkpsdLY1GLCZsGgU321sdJYYKQE5+sALsjyxpV7CggbPBqs7jT1qnD/c9K8Hl4o4JVRxx5BwbNjQjbSoHBfXrBZ27bKpCb+4cwp8qsTJ8hMFaTHTOhrwixsszm2f7Z3IGpfYq1Bq4e1A01yt3qnUUHbpla9YPp6frAFa9rWhGd8Qy+edrKJkowX7o92ddOHKQ1B8TtCUyxuG6L3TB/HImcuZqB6viRjdBWMvAsPGS53nr2P3HjyBOmj45a+TNaSC88Aw5C4OudzTQP0+1CIhI39oZ/V63VtVo+KsepCP8s2wnj7sXDDtX+ysiRwyRy9MBwFX6ON32hTFLD7N+FvvGzulYxN5ne6knmF8N9QVm88LGQOa0goEdSqioFFiVWqLGhLjJ1oExEF4SoAU0NSn/IA9SZ88QrsbONKJasLyhwdA/Sg0YXbXj9wVKFMV8GMK8vzKdQBkRSrHVGtDO1rMm1wtlxxlDdc1VV4kCdNHiQzhuWqgGhVheMtF8BEEBbkPoPyjEDjedA1s1M7X3GKN3PS1P5SrJ5Nmf4s3lwl9wXxJHjUZbXqBalJx1oOJryZUKxQ67DHoBdpFgTpv6na8blmrBnKQ3SGOVcFMALZGxOPkU3qXUUaFO6lKsBOmNTXCBisXdKn+b0gK0UeuGC6/PjYsea5Mt+EF4hVzTPAva9q2PHe8J5KIrCLHu3Tpm1JYkRnK5rZZ9o3BVpHhBEcgeAoCg/lTLYZsWu8v345aWZSHkGOwmeVM318V+A7TI0lbVSSABCQtB1wX8zFoYiwvAnRcl7/7DTpo0ZQwLpK+qZG7VNkOvkqQpQnqdV9dOxHAsb64o0V8tdZa+Vvn6xzju6IR89hAtrF228ImjrotXOv6LU+mYmqCFNN6faueKKcibGAUZqv3iQVJdaWUgpF5ZE2IM8SxcMK+WgTEQUBbE9440kT5fFv7y9XHDnGObodrLvr9fVW9TCI89GpfUFJHKRK4s/nzZDfnj7ZCJeCjGR9MLGqvWPl/w4c7py5ayAYjhpfqANIrQEdNB+v2moGE/Hg/ios9h2SY64BZRcKDIIheemmtAfXSUevUYXTEfSfciwD7VwDdJAB3lKkFgU1qFXy0HvLpagLQppYcpNqb9ZoZOjzoSlYpeyv8F2wHJ/9crX87uWv5UFVjrUq/CidQl/gNbYujTRYWne9s0zeXRJ88pmnSoooE+9fbayVrZWNKjzb1ADxXiMW4J/fWiq/e22h/OXtpfLn/y01x8OJOgIqYJNNQb6O4DoxPgjNEKLBWCLG3aEA0n6YofeFcEbAuIX++BzCQszNLTKhVGb1dh8UMusXKBli0Mtq0N/J/MkkLdzpK4R2eRFr2B/uhC0CCM2oWNgBrpGy4ZEARfaJjnttFoO/p2Cyh7Q/NTrKz6AXRFSBkLQLfZuwHtlWzF+SJdmVPSOMotpcrUq2zcw54Gkzbur0M5Pj4o2hlcVqe7/5mWgQMQURKtR9M+6pT4P7g/b88XETzMpoFgKFS5PS+SgOxoIeFqzxkEk5pTMfPXGAHDwiVy44YLD35BDAW+qbkSrVdU2SrMpmbWmd3OjUdNoJvV8W+hkrzLFws5ISzDxEuMtpI+we+WClLC2plfs/7NqmSmSKkd7L3APg5lLJNhA8wq01LbK1tsWU51hSXGkUIRkvKNtqP+u8MxiwpA0XdWHxEYbH5TNHyDfGeVfXd4TxbNUVxYpGCcbR9nqN9AFX+LImeaB6HayBwSsMNwj6cvVgOyvCRpFEZANeBH0WRU0Zi0DwOiFLXkZQE9fHwuc4Rti+Q7JU4Hikj1ry/kZZV6HPkn5Oa1GlADAqWDdTVt8oBw3PM89jO2SR7Sw4eT+T9XhKvms6OM4Ymbu+Sq308BtO9K+i6hZT74mSHr5JCnhEr3y9Sb0vshp31FqEgWhTMEYUckOvj2gA0Qk8iq4sDEVZs8aLOQz0CsqW2lt4rxittDFrTfplR78UT7crCBqSlFLSUzvCdG7t0DedNknuOWeaCRGEA2/4K0m2aMdYW06RP+/gAx70eQcMkwkDQ99LAGuK+GyeCpWczBQzSHn4vlSqhXDVE3Pkp8/MV2vBW+efNR/Ad9IZiqrCu/ERnZh4NJkSXalrw6UzeUacNkWvC2ob26SkMrDAZsAVV6mFqG1IjvzSLbXmuRFjZ0BVqEfRFRhov31lsdz37iptp9AsMuaR/vzOSvl0dfDKuCis8YWZ5iZ5RghhhC5JEeVqvXFsHXXBimuMFVmpSn+nlfd+IFTccvOdQa/ACmVRaKCFZi70USzxZrWkEKKs4FWDXftacGuSRAKms1jYVZCpVrz+Tf9MT0nQfuYxXm5mCKHTziCzDSGGlwJ6S8bbqW2kPMuO4oWx5T8eXGg7jCXfLCaGIsYbVRi6ErIJFT6ROREEO/Omm3zSsPk6qjZjvPnuac41oTTwmtz+wHOJi4vT9vXuNsdmSl0tY0ICDtGKHDV+i6oate97P5trJByIpMZQjjbdqiCw1I8d19fEGE+YsuP6gmiA6/6N8U4WiBPr881Y2BVMDHzmSG8cUp+ub1EvXNH/zt+knavNdLI27RQs3R+c6+2AZNcgzJcWh3fxFpbIau38WP/UkurKBBo594Q23AlRBnlHYTDCOyUqSJmvILaOwiCeinJhsRYr3rsC30t9LtrlncXFztHg4IZfqF7ffkODK3YUxLTh+UaIYgFyn0PzU00cGBlmBqYO8g2q8EjUpPjd4iCL6lCAP/7PfLn55cVSXBmCgtcv4DmQIprIqtIO4BVKsdTq5xMK/WpTpVrrrUYoBYPnxA+WKW3I51BjjHm8eISZo/B3B5RXlo4XwrIoc6DdvPs6aBv7Kgi9AOZCagKkSHv7ife466mCfrwpYthHlRnnhBs+sbXNuxc4Coj1Wtshs4i0+mZTjdYX1vVwbWQacVksADWhaFWU8bFxxkvq7Pn4Qx/k3lkXs0UNRLXDTN9EYSITaOvuoHsVhDbqMZP6ya1nTA7qQUQKGr0wM9VMUlK2g7oyWWpJ7i54AidOGWgsIh7rSqccMpb40pIqSVKXFeWI1UUHw3rhWsjY4Jw1W7s+mUuaYSArG6XHJCslPehjpCSWBSm77AvvXV/eYFbrYhlxjUw05gSwPDmXLKBKHTRMoCI4qHZLmRLGCllp3oz4wKBcfvzUXLMaHUxbbak2ixQ3qscya2Xnm/4w4JnnoLjj0h0Ge2C4GtJiCS1VNzWrIErS70Ux6Qv6YYQ1CEGRYYZyZeP6YDCQWX8xJ8R9PVgYhVxhjiYYTKbnqaW+Vb1PvLL+OUnqFXQSHtL7YtU73g/twvcwEU8xyoE5KXKLeuO7C+2H8mYcb1sbY9oNxee1/l3MuWo8Md/oH0Ll+mqavRUMuFdfCN24c3XhhP61QJ8T8x7pSd4ioZS0cGFcUgWA9mMi3oUxhBHC+1mrgOJizoA5TQQ8HmG9Kjvmf/zhPZ+tKJZfPjtX/vLO9jkt7h9ZQFJZtv4fhTsJ7fLZtC816bqLblUQPQUeHNkKKIpwPQo6OwsASX/7akOV8R6e+Xy1yVyhfPOg3FTjYbjfxwAekpdqhAb7Z4QKnWj91hq58YUFcusri83fvvDnpooGY40wiUYHrGsJbdKP6yPcRbkE3HAXN2NlB/RcBgpTnylJ+h1NLWZwE2ZAUHB/tEEgaP+568qMlczisSWbK82xOevLJTMpTg2zmA7rFe2AXgOWG3Frv2YICKcQKshTxTwgk3kg70Y71MQB7h/6ZSWpEIw14auOMM9bLdEMvV7K3HcGH41Sx5PB6+wQ/WBKYHP3RaooqR+mzSoF6R17uggxFsql6rUQOsNTxiA5bvIguePsafLT48Y5Z+4+fAfVkXneizeWm5pEH60oMRURWEPkQvtQrgYLmQKCO6CNgZeLovH1IAAji7TPJiYrwwjjhBXlaYkJZovk/pnJ5nn4YsJIeozabi6YfBn6HjweDC+eCwrM1MTS588cCpPYeB/+0KcXqAdYp91rY0WTNDipstw/3mRRDemtrTr+G/Vcb5YZc65cB+3THVgFoTAAmdjDMu5IiHUVOvbwPunm89ii860FG8ymQIn6PaQ1znHyrnFJwcTE+2ZKvlqKWF+hgoX+7LwNZv6E9SHPzdlxIyYse1xWrgdrZGtNsxGgoeFNV8QjGKwKDQhXUIvHH1rNeBANzZKqVhTZM6TEMsFHaiOKg3IbgUDhvMeKehUO3AdVMfkGFA5tlqADDwETCkz47j8012QHdQYD+tYzp8ivT54g3z18pMlo4ntREPwQdiCWT7VU5mI6un7gXDbHQUmEVlJEPav2NmNV43F2BPdN6RcWSa0pr9MDHhOWPHKcNyW8IxC2yDuUxe5ORncEn42nSIo2CnxFMfn/FN3zSJVKwR1qKOnJ8bHxptYZ3qw/zI8xFPA0faFpaHZXaQcCIf4rNZAe/WiFbNwa4kZQej2EPDeo8TSyME29s2Yp8vOsme9hPwsW8G5D75lq1WSKMX/Bc1+9tc4oCcJBhNuG5KbtpGzA65E3ah9FQYk8P2+t+ZcwLA4H87F4ImR0eUN2MWpMJqlxR1qz9zOizV6vIOjkWH3klqP1GZDhQMenKbRGRympbpYlxbXGIuXYtw4eod8ba1z9u8+d6pyvQjifvSvajWsbKl4Xt9l0WtzaFX6hFTogYSVgwSGLqIINNl9M51WrGas811ntiyBAgO9UoE1P3qTCnFAhAg1lxPwLyogwEfcXaO4D9/nDJcVSod+DoGRB3uZK7/XiTRXrtXva2lRI7Dzg/CHEU6oKcF15Q8heGNc1lDIK+rsrqMloWbKxyniUrOFgy0zGu++g53d2H7xOLea73lwia1UwkWBAFlygxWD+0LbcO95DsPiyCeup4cKCw1K1MCl/n60SZlgfb9HIQPBxacneIm/0uSG7UFIjVDD4++ckG+Ogb26yKjwsZa9V7VuCgzvEssbjoMKvL/R2UknJ4qN8iC/MfbGSmnBZIHgvnipF/ZYX1cpDH6+TTUG2Nt2GvpG5NMJ2SUmJRnj71lfi+VDSHAWA8eZCfxmYl2zmWYg6cB5bGrMVKd4DcoTPZM7KH66VfR1Y28E9LdxcbwzIpz9fKwx5PmuAyoTh+WqM6VcSrhpekOYYKt0jqvd6BQFMGJPeSChhn8Hbdx/bHRjYdNpJfdWL0M8u1k7D5ioHDM8xA+WhC/cz6zt8QViQsU5sc7G6oqFAp6usb1fPgwg/sXQ/wa0/pq6L9kBq6NB56dChQIdlXUBueoIpWAaEmrBu/IW9Obe+STtUjArUFBmUl+pdZKT3RJYOOfiBYqlk8iwuqjYhk+xUFWqqVEqqG8wHkhfOt8Q7nsX97yyRO19fJM/O7mBRk358jV4vGSE7TJCGgj4vvA+jcFVBvLei2Fw7WSV5qtRb9QLoI4ByQCmgBFnMkKgW3n8XbJFFRTWmfQjphAJhE9/QXSD4ihH9MkyZDJYqlqplXt+JrjR9L5OSNTFm8rwD2brb0N/SVSOQ/VWhihmPMVEFGUIUr4VkBV9IViDsuqqk1jmyHTwPLGUmsl24frKwyN4htTQQeJ9vLdykgrfZZNh9vrpcnpnjLcAZDIwJNuLhWgl7USIjz9fT0nbHe8zW13zhyVL0E29nqypB+mh+WpypazVjSK7xIhH67LsRCPbXZq4QQ4sFp1wHnmmqKkZ2lRzRJ11yiSLo7aIc2YETxeW77iKa7PUKgg7CNop4D/w+0SnnvbvoR5lJzxgVAPkZ8Tq4KSuSKPsOD56fj1DC5fx8VYCl/x3Q2k7BQapzquD2S69D4DFxixXEIEBYoKhCgkGi10/MlUHK4CD5BU9lZwXBIijvRCOT7QzcRh08mSneDVaY2GshUwyT1gfeh7W1Vq1+CjTyPsoucBYLDYn1olzwLOJi46UKIbCmXP7it3CNzyFGzwpUVu8ycLsKE9aUftlcXifVThiESqt8N6WomTgEBFd2Wrxs0PPYE9qjQrFW23ioCglixWYeJIR0V9rRZL8EgT5ZmJlilA4hCEIYzAkFg0/EmkX5EOJLDpIltTvQxzO1T6H46Q4t2j6kpG5V6xijhNTqHdDzWYOx3E9B8OxYDMeOc76pnDQN3s8hI/P0uQS+Z32rbFSPc215o/RVA4+VyH3VMPPF9CX1UJnncuF9eN68SCkYUw5G2/W9rzc5J3gz0/x7EffMOizmHDAUWGhXTSFKx8PFcyPppMrPSwLuExtjfQVZTxQ5JDQpsnIrJUZi5ZbTpxjFSrWIJB0vA3U8EFWg2kRBN+wFAXu9giAGfOa0gSZ7qW9msrqP23OedwejePSzhuSlyLryetMZdKwGhfeM7JNmMqqwYjvDxDS31qiwFqlS601lqzT5CWAgJsx9sv0qVoqOhU7hU+r1GpLiVLirgHRBgfE9/lVnOZ9ME/4t1AGKEOUHK5LUYZO1pQKEeLE/jUxAqnBglTZWU5N+tjuACe/00+fCjmoriqulj3oalCRhExcstWc/Xy3//GiZPPDuUrnnnRUyf0OFsfo7W3zmD02CZ4cixdvLVatwxpBsufzIUUYoE3Nm7oU2X11cJStKGqRvToqxbNerct5vUI5cftgwSVANSsri/HU773nuD8ow2PyDC/2Cz8RzY40GAqhTWlslTh80E8X7DA5cSyxc8JyZZ1uuz2dpSbUMzkmQU6f0k5F9txtbtOv0wTlmwtn/6ukzrJ3wV5b0AdYmvDBvs6lVFBB9C6mwtWpMDO+TaUKavnWhAEHOPgv3vrtKXl3gKACFvqhDzcwdsPp5+dZaeWu5N1uOayKshdHgD/NMHGZcz19fqedSATrBHONzCLE2qyL0BcNopXrKPG68WzwH+hLXzzFKl/BNmfovm0MNz0+Ra48da/aYeObyA+VXp0zwflCU6doo2gPhoeSodr7tzKnyi5PC+xBMtddRhdJfLZsDhufpAx/vvBIYBv7IwnQdKKRrdm4B0+lWaKemszEhmJQUa475CmG6aVu7N3xCuiYDyF+4BwJrhwWExIvdgcsAcD0JdyWpL7jsMbEe4znxfoQnigH4ftxk//kPro/UR+Y0GOCEbVhJSiYT34tyOnFyP1UM8Ub5MbeAwCQtkXTJMm2n6kbq6LfpYPYqKYQurnlXoQ2xhovUIq1V4/LQ0dQTQ3HEm2fJ3ARK6YX5m0yWyeYydhrztulHayukICvVJBlwfUtVGHQEcoEyJEzCs+q4U/QiUJzE2rm+zpQf15yjhkCsejdkrXGNkYLvYo0LNc2KaxplY0WLfPvQMfIjv8WsdCEWTOJJGsHoB/tB0Ma+0N9IzT1oeG6HHgQdiIVkjAGMB7K2WNPiD+sKWUdS43h2XAG11+grCOXjxheaTYEI//z+9cXmIZHE4F/QkGdbmJFivFQMKBZWmrmC/FRtC1UUej5jo9avnxtjTj1Owq6UrsErMONQLwQDjvAhSnTGsHy5/ZuTVVZszzRDAXcXe72CiCR0JrZ2/P6R4+TkfbaXJe8IxseIggwzJ5KbGtfpgis6eWUD6xvUW9GBRPyTVLrlvgu6GEBq3XEcS4mwRiDh7g9jmIk0LFcmwF2wnvSjjFXmC9dCtglCHWsIQUm3RuDzL4qFAReo3DOWOa/lIEB0gMepklmwXgVuZqLZl2NQXoZQLhp3vEa/l4yeVBWSHywrkUYd8NSvYV8PwkMoDsIxhT6566HAs2KylbAMSobQ1ih9Fi48Gyp4Pv7JSpOKiJAeMyBTpgzMMnX6UYSspxiUm2wsyCVFNcL2poFAyTw3Z4PxCPAiOoP2QwjTrmzEZR5OELiWoycNkrNnDJYfHTPaORoZaLdh6pkyuUy/IhRHSHEn9DwynlDC7qK4bejt8GwDrQch7ERmE9/TEZTsp1/1UUOMxvJVuoRCH521wswnoEbq9G/AgMGgIYTINU0YlCv7D81S44qdJmtk4cYKs8iQELE/rJ1A4XFJlOkgNHXq1IHmbzzNQdnMv+3Yz3lsm1SZEN7NTUs27UU/Y76M/usqcT6D4qDdqRR8sQqiB0GnYFEOe2sTS3+ok7pJyAni/lhGlE5AMNGvlqpw8oXYNaEeBi72vzeFLjgMIO9CIMopeBUEoh5rGvHU0Wd4XW3voj8W/xgXnYGjgxDvwQwK/XngnaXy82fny22vLFKByXoAb2csSI8zFtqKkjpTioQBh/W1VT0H5iIGqhDIVGHJCJ2ztlzWqLWfqt/5m1Mny5kqELHQcPMHOGm5ocJlZqUkGWFB3jnrRgj1bYdJ9nYpqWw08yqj9RlddNBwOW5Sf5PccNiofKMcKQ2P90eF4E86mEfiftjPYT8VSEeOCq2Ui1kfoNfEZDVbv3YG13LQqAKJ9D7GCO5BqlhZ78K0DxsDMRHtj166MVB4zlRO9gfPyEz6+0B/Y5J6cF6qCW0Ggr5Y3YxXQMmaJJOGzXqV1+ZvlDcXbpL/zl9v6lFhdNGGDY5yol+TrMEEsQnv6Mfjebihn3U6/uinJCcEgi1rmReIUVciSdsg2XkmtEOqevLsx+1bMofP3FBWZ/pZXlq82VyMOQb2IkG5YSD1RAK3uqXboIPWqIBhILHD1jsLNzuv7AxCvLi6wbiopK/SYRlja/zitQw03FcsNDriThZcALB4cJ+xxpmQM+hno2RwlbGCd0DPr1EFsK1yqL6H62pS05C/WWNA2ipW9V1vLDQTvqQ2er2ZGLXwiOuy1WyybKioV0uL4mVxctAId8fAWLPq/apvjDMhrL7qYVU1NZsOPKYw0wiqgdlpZlCTG8L9dhXe0i89wTwDBIgvCFxWhhfrgCbj5tLDvJY5ntH1J06Q4yezvW2MjCjMUgWiV6Xvb2ZGsgOYiFy4uVYOHLXjhj+BoF1Q/nhtCOHMEBREtKCfjunnbX/0KdeItR4QPYwAT/TzMGhq+o3/I+M5sOjwzUVFUtxRfTJ9UNSpon+lqaHAeoEsFd6vLSySlxcUyaayBhOKxEAiFEgChEG/i2fKIjjal/6+pabFpOliCLDVMenZgRa8Ad56TByla9rMdsG+0M9ZUf/eku3lYTiD1eaZeo1sioahVF7XLG8v9o7vzlbTdxeML0sPgoE2qjDdbG6EO/r2slJ54jPv5kMMvlv/u0DueXOJLNxQblJASVslDZV6VmP6pZlQkptiR6dkhSuTbVhgzHGQhx5KZUzeS/YTZ+boIALCLOzUduY+/WV1gAVJvO5uGZuuA5LJXSaZzWv63cyPkIZKBd3yhiYzT2DCQir1YmO9oaHTpwxUYeEt0dHWFmOEP0rt5jOmyE+OG2tixufuP1Ri9bMJB7Fi+JRpA813IGDYDGjYLub9Iyj6ZKeavX+x8Fy4H1I089XyQxgFmx/iPqcNyVWFHW/mUW575Wt58pOV8t7iInl9wUZzDm3LMyAUxCK8zqBdEcLcO/eY5TyPngBt1i8nVQZkJ5iQDJPK/luQ7oC+RC2pZT5hUJPZpkKWCX5fGAsjCzLk58ePk3H9d6yH5GLGgHqX7HVBP+mr4yBHPTpCP95J/RZZsbVBpg/L1WsldZrWV/QfQpvuJDSW/0UHDDaL3FAkLDplx8FAe1HwFibG2TiIeTbCoi5c87j+GWZbUtbD3Pbq19oHFsq9by02zz1Dvc+pQ/JNWjdzbSWqlOgHKLieSOyMGTNk5syZUlraea0bS+RBCJy8z2CT2leYkSzxOgSKK5uNZfzUp2slT63oErXCX5i/WTuousTa67BK2E5z32F9jBXn5kzjYWyqrDcDkCwmuiBuNmGYzmE3OLVY9Vx3VTKhqs9WlxnL5+uN28NYnPP5qhJzPl4B93DJoSPkse/sZ3YdQ4jk6UDLT0s0i7fKahukT2aycfuZ0+DKdOya8xDQ4wtT1brTAa+CmnQ/XxicxGgZgJMHZsnVR41yXvFa8786ZaLJ/tgVjPLZd5AMyUmRkyftuFKZMESB3gMCIJm9ajsAb41zuS8miskY+2xtlTyvyuG1RcVSRL0fvVdi7ijtUNZroNhH9EkzCyj5PPL2exYxahjEG6+PPocSCwSHsZRZKbxoi9fAoKsyt8P+9P5rQgjLLCuqlquemme2SO0IzjM7UypM/JbUeNO6yXwjrIkgLshMMcLeneBnBLDmxk2H5vypQ/JMMgn9vK2tVaaooPftX77wdSykI7zpmxDBvQ/ISDFJBUnx7abfs46GMC0bIrGYkhXcU4Zkq6GEl+2dL+nyup0oETt79mz54IMPJD8/3zlk6W7orDOGF8jxk/qavOjaxka59+1lsrm6TmK1QyGQmWB7ef56I4jIdSdeTkkABC1CDAjxvKWuNtaUa5zhPvtnWASCgctKU7J13A1tEKAnTOqnvxFO8H4Hg3PVlkqZtaLUbGPZL2PnbBPO5L2l6jWsKquTtZUtxrK75NCRqjDazEThyL7e9GIGLokmZIYwER0IBOulh482m0ZlqzcSLmi2XFXK150wQQ7x2euZ48SV69SDa9cGJjOoI3h2Bw7NlaG5KdJY36TPJEGvV9tf75/5mc/XeOclUOKhygSe5/CCTO9ivVaPaa+eBEqBsOXoPhly8cGDTT8MBPdBH2HimXU7QBiJJAqUqv8Od5yP4fPYJTPk2AkdlBbRDsO6E8YEz6lPerIR/DosTEq3vmTW//DMMLLIHAMTCtNnxbyIC/0UI+OQEdmqsLzl3gNVIOa6mCtEt5BQsZ96Jy4YOQP12aOwSqpbzK6ZKfoRW1Rp4SGz8Q9DZ1B2mgnFmYxcvYce6kDYEFNPhU5IPJvy0wNy1WVVwcSGSSvLmkyNp4zEWCnWTkdqoLtXA5BJw8pLdu56ff5GU3qCUiJMEjMCCJ/QiX1hcH25ZmcLjQHFGoZtcxAK7jCrSEmlnbeuzLjs7yxX70EHOWVETpy480Dm26gflCBxsrWqWT2HeLMHiLH4T50k95w/Tb4302upMYhOndpf7zFNfnDkSHOsu8ErIO5f36zekd48WSodQdOmqjAiRLGhptW0CytjWXFc29RkLGeUIHFxBGuouM8Mr6SnxasJ7dx4ymS55pjRcsEBHe/0iGBk4Vu2SkwywYAmIHW5rNYpme0Dr61Vg+L7/5orry7c4hzdDp7x8s1lan2zhz1rWGJl3+HZxkMmZIRHgvJgnitLvU6MGsJOGDUUxOPJorS3oV9Pccg+KcmqWNiLPcjziWmXYbnJZq+I4ewr4oCBMKZftgzOTjalzSmt0T83TX6j7XPbN6dqG413xjar4/Ua1dhhgtx3o6SehFUQPRgs5cuPHCMTC5OkoZ28azVZtAOePHmgsYBwpQnr5DoxaYYXGSRJOmA+Wr5VFmyqUAtJrbB+GfJjn7xqOj67jf36xXly68uL5M/vLJH3lhTp71/JA+9t30eb/RiQZv4WIQqHTv7RqlJ5+vPVUqLWIAKQ7KHpwwNYenph6WpJkwLJwGNF9cHD+zgv7gifO3pAtlyp9836lJ4AgmVc30wjXGiQfTrZawIBzpqX6UNy9T7GGiXO/EW7h3pUbVKk7cX2smkJHXsi/vBsmT8iNOVbXbSngJDuLGOKdpykHgH34uo4RDBzOoQfs1WR+oJO7J+lHt3xY2X/YW6yghfex5qGT9dWmN3sCC2hYA4Z3deU0yfsyr8oYTwIBDeeC5636g9ZX0FhwTY1UrgaL/S9vmq41DY2mPUa/dTgCYQZl0eMkR8dN14uP3zn7ZQR+qQjUzqEuYqjxgfe68bj8W4wROiSzLieiFUQPRxjFY0eIGfsM0Bd12T51oGDJT8z2XgVyO80FcyHjPCGB+nq2TowCC1tLK/VAeBRazZRLjxo6LbXk2LU0tJBs6m8RrLUUiIGS+prZlKSduoYWVZUJ7e+sshYb6wtILTiC4NoeF66DM1SK7m6UTZUNYl645Kg13HlN3YeLGAscPUg2OaSgY1HMn5geGpeRQMEz8GjC0z8n7pSY/oGnjD1Be/oWwcNMxvzEBpaSQE5bVQKN9733nKTiom3FypYyHedM03+fvG+Ruj0Rug7A9Sa5raZHH7qs1VGQH6uhgZVXv3TXOkrbLP61qJimbe+Qv7w2kJ59L0lcudbS8yeJp+sLDXbhB44PEfOmzHAvId2+v2ZU+XsfQeZ9iZdmVAeyiZPPZc+qQlmr/HFGyqNoMeo8SUhPl72G9VXLjpgiNywiwtnmefAIPvlSRPl5ycEXhyLwpo2ONt4UiSasH6nJ2IVRC+AgTVShdKvTpkkkwbmmo590cHDZZK6tydNKpRJTikFOt30ITnqNqsL39xi5hoaVBCxMMclST0KJtfeXFQiyZ42s/Pd2rIGtapaZWhOkneOQgclEGNl8xJfCAEdN7FQEpMT1UWOM6Gsyf0z5boOBgIwOLmGqYMzjbLwFtXuXSB47jl/uvzumzsWWOwMvImrjx4rB40sNGEiniUWI0KkWa3ZrsJcRm+G+x+SmyqrS+tl/kZvhWPWI7AKut5vnxJ6Hn19aG6ibCytkuy0JNlS3ybVdS3y11nL5bPV5VJa3ypqB8nhPlY630FYh2fGimf+1v+ZjZZSVUmQwrrBJz3cF4yBmWP7yozhuzcny3cGU+Q8x2Mm9TdZUExkZwVYO9IjUBfMU1lZyYgN+JOSkuJ59NFHOc3T1NTkueeeewKex09WVpY5D2pqajxTpkwJeF5iYqLn6quvNue1trZ63n///YDn8ZOenu6ZN2+eObe+vt5z0UUXBTwvLi7Oc9hhh5nzYG+9p/p6vZ+HX/N84+KfBjyPn6TUdM8Nz87z3PDcPM9vnv7MUzBkdMDzYuMTPPuecJ757nDdU2xsrGfM1P3MebC3Paf4xCTPyVfd5Pn2Y597fvns3L1uPGVkZnqWbCrz3P3w6541/37aM3HS5IDnufdUU9/sueuNrz3f/8NjAc/jpyt9b/TEaZ7X//Zfz5X/+tJz7l/eDngeP3uT3OMzZs6caY77Yz2IPYzkmHY5a+2nEuOkz3UEqXwZKYly7fETzMbsgYhVFz2/Prz7Y2NFs+p7b4XFj1nV5dInNVFO6N87Q0W7A5b12Lw0uap4tuS/8z+JLe04fRXpReglXtvMra67W+h3Z6l3PbZ+i2QkxcrI/PAU5tyT0f7q8dTW1spJJ50kqtGcw5ZeC276s8+K5733pC0nV+J/f7vzgtKqg+ztt8Xz0stSW9hPknJzJPEHVzovKo2N0n7DDRKbl2cGk3z6qfrl6ro/9JBzgmWXoRzEAw9I2/LlEldUxKSNyN//LpLatZIgewTaFp7HHhNZtMgYDLJ+vcjkySK/+Y1zQhCamkTuvNMoj/p1G0SysyXt97d5X/NFT2iqb5BlG8tk/Mj+JvvOoH285bbbpLWpVZKPmCkxxx7jPb4XE0z+Ww9iTwPBc/bZEnPNNRJ/y83OQQdKWh5+uMQkJZoaRzsoB4iNldgxY0SSkkQ26OBLTBTJCa1WkKUTaMsrrpA4bX/TvijhvVE5gLZFzMUXS8zo0SJV6qFi1NA3Q4H+feaZErNpk6Spl5yW30Epc9U7SWkpMnnMwO3KAZKTJeGmmyTl9lutcggBqyD2RChIM368Vyj5owNE7r5b5LrrnAM+cL4OXKmp8Q7arCyRo45yXrTsNgg3tdTMM8jYXil2r4S+9u1ve9skJUXk5JOdFzpBjRgZOFCkrMyrXCZ0zz4Jews2xGQJDAn39fUi6TZOa4kQpMl99ZWYnOpp05yDIYDx8sorIuvWiainbNk9bIjJ0nWw1KxysEQSPN199umacgC8jtNPt8ohClgFYbFYLJaAWAVhsVgsloBYBWGxWCyWgFgFYbFYLJaAWAVhsVgsloBYBWGxWCyWgFgFYbFYLJaAWAVhsVgsloBYBWGxWCyWgFgFYbFYLJaAWAVhsVgsloBYBWGxWCyWgFgFYbFYLJaAWAVhsVgsloBYBWGxWCyWgFgFYbFYLJaAWAVhsVgsloCYLUerq6tl5MiRMnjwYOfwrqEfJWVlZZKfn+8c6bn0pmsFe72Rw7ZtZLF9IXKE43rb29ulsrJSVq9e7RxxEfl/Oe8edRlrVFcAAAAASUVORK5CYII=;" vertex="1" parent="1">
          <mxGeometry x="-690" y="1440" width="392" height="197" as="geometry" />
        </mxCell>
        <mxCell id="ZKNnla8mWsDUbSr4f9X8-44" value="" style="group" vertex="1" connectable="0" parent="1">
          <mxGeometry x="-378" y="1104" width="208" height="179" as="geometry" />
        </mxCell>
        <mxCell id="ZKNnla8mWsDUbSr4f9X8-26" value="Physiology" style="swimlane;fontStyle=0;align=center;verticalAlign=top;childLayout=stackLayout;horizontal=1;startSize=26;horizontalStack=0;resizeParent=1;resizeParentMax=0;resizeLast=0;collapsible=1;marginBottom=0;fillColor=#fa6800;strokeColor=#000000;strokeWidth=2;fontColor=#000000;fontSize=12;" vertex="1" parent="ZKNnla8mWsDUbSr4f9X8-44">
          <mxGeometry width="208" height="52" as="geometry" />
        </mxCell>
        <mxCell id="ZKNnla8mWsDUbSr4f9X8-27" value="+ Name: Heart rate" style="text;strokeColor=#000000;fillColor=#fa6800;align=left;verticalAlign=top;spacingLeft=4;spacingRight=4;overflow=hidden;rotatable=0;points=[[0,0.5],[1,0.5]];portConstraint=eastwest;strokeWidth=2;fontColor=#000000;fontSize=12;" vertex="1" parent="ZKNnla8mWsDUbSr4f9X8-26">
          <mxGeometry y="26" width="208" height="26" as="geometry" />
        </mxCell>
        <mxCell id="ZKNnla8mWsDUbSr4f9X8-28" value="+ Mean_Value: 67.17" style="text;strokeColor=#000000;fillColor=#fa6800;align=left;verticalAlign=top;spacingLeft=4;spacingRight=4;overflow=hidden;rotatable=0;points=[[0,0.5],[1,0.5]];portConstraint=eastwest;strokeWidth=2;fontColor=#000000;fontSize=12;" vertex="1" parent="ZKNnla8mWsDUbSr4f9X8-44">
          <mxGeometry y="52" width="208" height="26" as="geometry" />
        </mxCell>
        <mxCell id="ZKNnla8mWsDUbSr4f9X8-29" value="+ Std_Value: 8.88" style="text;strokeColor=#000000;fillColor=#fa6800;align=left;verticalAlign=top;spacingLeft=4;spacingRight=4;overflow=hidden;rotatable=0;points=[[0,0.5],[1,0.5]];portConstraint=eastwest;strokeWidth=2;fontColor=#000000;fontSize=12;" vertex="1" parent="ZKNnla8mWsDUbSr4f9X8-44">
          <mxGeometry y="77" width="208" height="26" as="geometry" />
        </mxCell>
        <mxCell id="ZKNnla8mWsDUbSr4f9X8-30" value="+ Median_Value: 65.85" style="text;strokeColor=#000000;fillColor=#fa6800;align=left;verticalAlign=top;spacingLeft=4;spacingRight=4;overflow=hidden;rotatable=0;points=[[0,0.5],[1,0.5]];portConstraint=eastwest;strokeWidth=2;fontColor=#000000;fontSize=12;" vertex="1" parent="ZKNnla8mWsDUbSr4f9X8-44">
          <mxGeometry y="101" width="208" height="26" as="geometry" />
        </mxCell>
        <mxCell id="ZKNnla8mWsDUbSr4f9X8-40" value="+  Usual_Range: 56.40 - 81.50" style="text;strokeColor=#000000;fillColor=#fa6800;align=left;verticalAlign=top;spacingLeft=4;spacingRight=4;overflow=hidden;rotatable=0;points=[[0,0.5],[1,0.5]];portConstraint=eastwest;strokeWidth=2;fontColor=#000000;fontSize=12;" vertex="1" parent="ZKNnla8mWsDUbSr4f9X8-44">
          <mxGeometry y="127" width="208" height="26" as="geometry" />
        </mxCell>
        <mxCell id="ZKNnla8mWsDUbSr4f9X8-41" value="+ Unusual_Range: &lt; 56.40, &gt; 81.50" style="text;strokeColor=#000000;fillColor=#fa6800;align=left;verticalAlign=top;spacingLeft=4;spacingRight=4;overflow=hidden;rotatable=0;points=[[0,0.5],[1,0.5]];portConstraint=eastwest;strokeWidth=2;fontColor=#000000;fontSize=12;" vertex="1" parent="ZKNnla8mWsDUbSr4f9X8-44">
          <mxGeometry y="153" width="208" height="26" as="geometry" />
        </mxCell>
      </root>
    </mxGraphModel>
  </diagram>
</mxfile>
